<svg width="26" height="25" viewBox="0 0 26 25" fill="none" xmlns="http://www.w3.org/2000/svg">
<path d="M0.0999908 3C0.0999908 1.34315 1.44314 0 3.09999 0H22.1C23.7568 0 25.1 1.34315 25.1 3V22C25.1 23.6569 23.7568 25 22.1 25H3.09999C1.44314 25 0.0999908 23.6569 0.0999908 22V3Z" fill="#61CEC0"/>
<g clip-path="url(#clip0_268_2191)">
<path d="M12.3766 7.79028L8.65114 5.94519L8.76382 10.069L12.2814 11.8111L12.3766 7.79028Z" fill="white"/>
<path d="M16.5126 10.1192L16.4653 5.96216L12.8421 7.93472L12.8868 11.8598L16.5126 10.1192Z" fill="white"/>
<path d="M16.5105 14.5657L20.0999 12.5127L16.5087 10.6239L12.9191 12.5094L16.5105 14.5657Z" fill="white"/>
<path d="M12.2808 12.5127L8.69146 14.5657L5.09999 12.5094L8.68959 10.6239L12.2808 12.5127Z" fill="white"/>
<path d="M16.5667 19.0173L12.8412 17.1722L12.9365 13.1514L16.454 14.8935L16.5667 19.0173Z" fill="white"/>
<path d="M8.73244 14.8978L8.77979 19.0549L12.403 17.0823L12.3583 13.1572L8.73244 14.8978Z" fill="white"/>
</g>
<defs>
<clipPath id="clip0_268_2191">
<rect width="15" height="15" fill="white" transform="translate(5.09999 5)"/>
</clipPath>
</defs>
</svg>
