<svg width="26" height="25" viewBox="0 0 26 25" fill="none" xmlns="http://www.w3.org/2000/svg">
<path d="M0.860001 3C0.860001 1.34315 2.20315 0 3.86 0H22.86C24.5169 0 25.86 1.34315 25.86 3V22C25.86 23.6569 24.5169 25 22.86 25H3.86C2.20315 25 0.860001 23.6569 0.860001 22V3Z" fill="#EED535"/>
<path fill-rule="evenodd" clip-rule="evenodd" d="M10.3152 5.01716C10.3123 5.00876 10.3185 5 10.3274 5H15.6135C15.6192 5 15.6242 5.00369 15.6259 5.00911L18.0539 12.8535C18.0564 12.8618 18.0502 12.8703 18.0415 12.8703H14.5223C14.518 12.8703 14.515 12.8744 14.5161 12.8785L16.5345 19.9834C16.5384 19.9972 16.5203 20.0062 16.5117 19.9948L8.66817 9.56409C8.66176 9.55556 8.66785 9.5434 8.67851 9.5434H11.8724C11.8769 9.5434 11.88 9.53902 11.8785 9.53481L10.3152 5.01716Z" fill="white"/>
</svg>
