<svg width="26" height="25" viewBox="0 0 26 25" fill="none" xmlns="http://www.w3.org/2000/svg">
<path d="M0.239998 3C0.239998 1.34315 1.58314 0 3.24 0H22.24C23.8969 0 25.24 1.34315 25.24 3V22C25.24 23.6569 23.8969 25 22.24 25H3.24C1.58314 25 0.239998 23.6569 0.239998 22V3Z" fill="#8CB330"/>
<path fill-rule="evenodd" clip-rule="evenodd" d="M15.2624 5.01469C15.2733 4.99911 15.2947 4.99532 15.3103 5.00623L16.3754 5.75201C16.391 5.76292 16.3948 5.78439 16.3839 5.79996L14.9015 7.91706C15.6221 8.1473 16.1131 8.39565 16.1131 8.39565C16.1131 8.39565 14.913 10.46 12.8774 10.46C10.8419 10.46 9.39546 8.53598 9.39546 8.53598C9.39546 8.53598 9.90834 8.20867 10.6686 7.92795L9.0426 5.99018C9.03038 5.97561 9.03229 5.95389 9.04685 5.94167L10.0429 5.1059C10.0575 5.09368 10.0792 5.09558 10.0914 5.11014L12.1502 7.5637C12.3265 7.54376 12.506 7.53262 12.6873 7.53262C12.9478 7.53262 13.2079 7.55242 13.4619 7.58603L15.2624 5.01469ZM15.6651 10.5578C16.2083 10.1698 17.0303 9.15723 17.0303 9.15723C17.0303 9.15723 19.1298 10.821 19.1298 14.3489C19.1298 17.8767 15.5 20 15.5 20C15.5 20 13.7657 18.2486 13.34 16.0284C12.9143 13.8082 13.9698 11.343 13.9698 11.343C13.9698 11.343 15.1219 10.9457 15.6651 10.5578ZM9.81491 10.5578C9.27171 10.1698 8.44974 9.15723 8.44974 9.15723C8.44974 9.15723 6.35018 10.821 6.35018 14.3489C6.35018 17.8767 9.98 20 9.98 20C9.98 20 11.7143 18.2486 12.14 16.0284C12.5657 13.8082 11.5102 11.343 11.5102 11.343C11.5102 11.343 10.3581 10.9457 9.81491 10.5578Z" fill="white"/>
</svg>
