<svg width="26" height="25" viewBox="0 0 26 25" fill="none" xmlns="http://www.w3.org/2000/svg">
<path d="M0.619999 3C0.619999 1.34315 1.96314 0 3.62 0H22.62C24.2769 0 25.62 1.34315 25.62 3V22C25.62 23.6569 24.2769 25 22.62 25H3.62C1.96314 25 0.619999 23.6569 0.619999 22V3Z" fill="#FD7D24"/>
<path fill-rule="evenodd" clip-rule="evenodd" d="M15.9451 16.5838C16.1304 15.9061 15.7707 14.513 15.7707 14.513C15.7707 14.513 15.5097 15.6479 15.102 16.0674C14.7542 16.4252 14.3281 16.6734 13.717 16.7386C14.2166 16.4959 14.5603 15.9898 14.5603 15.4049C14.5603 14.5839 13.8832 13.9182 13.0479 13.9182C12.2126 13.9182 11.5355 14.5839 11.5355 15.4049C11.5355 15.6292 11.586 15.8418 11.6765 16.0325C11.1541 15.6163 11.0719 14.949 11.0719 14.949C11.0719 14.949 10.4886 17.371 12.096 18.5103C13.7033 19.6496 16.8521 18.6703 16.8521 18.6703C16.8521 18.6703 12.346 21.8409 9.00692 18.3901C6.13057 15.4175 8.25619 11.504 8.25619 11.504C8.25619 11.504 8.16439 11.867 8.16439 12.2885C8.16439 12.7099 8.39289 13.0306 8.39289 13.0306C8.39289 13.0306 9.07448 11.5939 9.60493 11.0096C10.107 10.4567 10.7363 10.0082 11.2799 9.62082C11.6983 9.32264 12.0659 9.06067 12.2854 8.81513C13.4947 7.46295 12.7533 5 12.7533 5C12.7533 5 14.1164 6.20176 14.497 7.75384C14.6421 8.34547 14.5487 9.01862 14.4653 9.62059C14.3298 10.5978 14.2204 11.3875 15.199 11.3362C16.7805 11.2534 15.4062 8.81513 15.4062 8.81513C15.4062 8.81513 18.9937 10.7007 18.7257 13.9984C18.4577 17.2961 14.8044 18.0458 14.8044 18.0458C14.8044 18.0458 15.7597 17.2615 15.9451 16.5838Z" fill="white"/>
</svg>
