<svg width="16" height="15" viewBox="0 0 16 15" fill="none" xmlns="http://www.w3.org/2000/svg">
<path fill-rule="evenodd" clip-rule="evenodd" d="M12.8738 11.5268C14.3885 10.3157 15.34 8.5657 15.34 6.61963C15.34 2.9637 11.9821 0 7.83997 0C3.69783 0 0.339966 2.9637 0.339966 6.61963C0.339966 8.49545 1.22396 10.189 2.64432 11.3936C2.55824 11.6908 2.51102 12.0141 2.51102 12.3521C2.51102 13.8145 3.39466 15 4.48471 15C5.19299 15 5.81415 14.4995 6.16234 13.7477C6.51053 14.4995 7.13168 15 7.83997 15C8.48561 15 9.05883 14.5841 9.41892 13.9411C9.77901 14.5841 10.3522 15 10.9978 15C12.0879 15 12.9715 13.8145 12.9715 12.3521C12.9715 12.064 12.9372 11.7865 12.8738 11.5268ZM12.1821 6.75091C12.1821 8.60698 10.1939 10.1116 7.74129 10.1116C5.28871 10.1116 3.3005 8.60698 3.3005 6.75091C3.3005 4.89483 5.28871 3.39018 7.74129 3.39018C10.1939 3.39018 12.1821 4.89483 12.1821 6.75091Z" fill="white"/>
</svg>
