<svg width="26" height="25" viewBox="0 0 26 25" fill="none" xmlns="http://www.w3.org/2000/svg">
<path d="M0.719986 3C0.719986 1.34315 2.06313 0 3.71999 0H22.72C24.3768 0 25.72 1.34315 25.72 3V22C25.72 23.6569 24.3768 25 22.72 25H3.71999C2.06313 25 0.719986 23.6569 0.719986 22V3Z" fill="#D04164"/>
<g clip-path="url(#clip0_268_2194)">
<path fill-rule="evenodd" clip-rule="evenodd" d="M8.30691 6.24704C8.48844 5.53031 9.13775 5 9.91089 5C10.4908 5 11.0011 5.29838 11.2965 5.75H11.7803C12.0809 5.44155 12.5008 5.25 12.9654 5.25C13.6467 5.25 14.2318 5.66176 14.4855 6.25H14.8905C15.1443 6.09156 15.4442 6 15.7654 6C16.4467 6 17.0318 6.41176 17.2855 7H18.3869C18.3963 7 18.4051 7.00254 18.4127 7.00696C18.463 7.00235 18.514 7 18.5654 7C19.4792 7 20.22 7.74076 20.22 8.65455V13.6158L20.22 13.625L20.22 13.6342V13.7057C20.22 13.7359 20.2191 13.7661 20.2175 13.7961C20.118 17.2378 17.0232 20 13.22 20C9.35399 20 6.21999 17.1458 6.21999 13.625C6.21999 11.9255 6.95021 10.3813 8.1405 9.23853C8.13753 10.8954 8.16552 12.6082 8.29452 12.5788C8.63994 12.5001 8.37006 7.36834 8.30691 6.24704Z" fill="white"/>
</g>
<defs>
<clipPath id="clip0_268_2194">
<rect width="15" height="15" fill="white" transform="translate(5.71999 5)"/>
</clipPath>
</defs>
</svg>
