<svg width="26" height="25" viewBox="0 0 26 25" fill="none" xmlns="http://www.w3.org/2000/svg">
<path d="M0.719986 3C0.719986 1.34315 2.06313 0 3.71999 0H22.72C24.3768 0 25.72 1.34315 25.72 3V22C25.72 23.6569 24.3768 25 22.72 25H3.71999C2.06313 25 0.719986 23.6569 0.719986 22V3Z" fill="#58575F"/>
<g clip-path="url(#clip0_268_2222)">
<path fill-rule="evenodd" clip-rule="evenodd" d="M12.4501 18.2671C12.7351 18.3107 13.027 18.3333 13.3242 18.3333C16.4883 18.3333 19.0533 15.7683 19.0533 12.6042C19.0533 9.44003 16.4883 6.875 13.3242 6.875C13.1119 6.875 12.9023 6.88655 12.696 6.90905C14.2656 8.09817 15.3033 10.1581 15.3033 12.5C15.3033 14.9621 14.1563 17.1125 12.4501 18.2671ZM13.22 20C17.3621 20 20.72 16.6421 20.72 12.5C20.72 8.35786 17.3621 5 13.22 5C9.07784 5 5.71999 8.35786 5.71999 12.5C5.71999 16.6421 9.07784 20 13.22 20Z" fill="white"/>
</g>
<defs>
<clipPath id="clip0_268_2222">
<rect width="15" height="15" fill="white" transform="translate(5.71999 5)"/>
</clipPath>
</defs>
</svg>
