<svg width="26" height="25" viewBox="0 0 26 25" fill="none" xmlns="http://www.w3.org/2000/svg">
<path d="M0.959961 3C0.959961 1.34315 2.30311 0 3.95996 0H22.96C24.6168 0 25.96 1.34315 25.96 3V22C25.96 23.6569 24.6168 25 22.96 25H3.95996C2.30311 25 0.959961 23.6569 0.959961 22V3Z" fill="#ED6EC7"/>
<g clip-path="url(#clip0_268_2228)">
<path fill-rule="evenodd" clip-rule="evenodd" d="M8.96961 16.8943L11.3756 16.1966L13.4537 19.9963C13.4564 20.0012 13.4635 20.0012 13.4662 19.9963L15.5443 16.1966L17.9503 16.8943C17.9557 16.8958 17.9607 16.8908 17.9591 16.8854L17.2613 14.527L20.9562 12.5062C20.9612 12.5035 20.9612 12.4965 20.9563 12.4938L17.2309 10.4563L17.9591 7.99497C17.9607 7.98958 17.9557 7.98457 17.9503 7.98612L15.4879 8.70014L13.4662 5.0037C13.4635 4.99877 13.4564 4.99877 13.4537 5.0037L11.4321 8.70014L8.96961 7.98612C8.96422 7.98457 8.95921 7.98958 8.96082 7.99497L9.68902 10.4563L5.96366 12.4938C5.95873 12.4965 5.95873 12.5035 5.96366 12.5062L9.65855 14.527L8.96082 16.8854C8.95921 16.8908 8.96422 16.8958 8.96961 16.8943ZM10.8366 12.5259L12.5412 13.4581L13.4734 15.1626C13.4761 15.1676 13.4832 15.1676 13.4859 15.1626L14.4181 13.4581L16.1226 12.5259C16.1275 12.5232 16.1275 12.5161 16.1226 12.5134L14.4181 11.5812L13.4859 9.87671C13.4832 9.87176 13.4761 9.87176 13.4734 9.87671L12.5412 11.5812L10.8366 12.5134C10.8317 12.5161 10.8317 12.5232 10.8366 12.5259Z" fill="white"/>
</g>
<defs>
<clipPath id="clip0_268_2228">
<rect width="15" height="15" fill="white" transform="translate(5.95996 5)"/>
</clipPath>
</defs>
</svg>
