<svg width="26" height="25" viewBox="0 0 26 25" fill="none" xmlns="http://www.w3.org/2000/svg">
<path d="M0.619999 3C0.619999 1.34315 1.96314 0 3.62 0H22.62C24.2769 0 25.62 1.34315 25.62 3V22C25.62 23.6569 24.2769 25 22.62 25H3.62C1.96314 25 0.619999 23.6569 0.619999 22V3Z" fill="#EA5D60"/>
<g clip-path="url(#clip0_268_2207)">
<path fill-rule="evenodd" clip-rule="evenodd" d="M18.9862 17.4579C18.9862 17.4579 17.0946 18.975 13.3303 18.3472C10.4745 17.8709 8.95126 14.7227 8.95126 13.0305C8.95126 9.01847 11.9207 8.10545 13.9283 8.10545C15.9358 8.10545 17.2454 10.0627 17.2454 11.5781C17.2454 13.0935 16.1736 14.419 14.5056 14.419C12.8377 14.419 12.3437 13.248 12.3437 12.1714C12.3437 11.0949 13.2147 10.7156 14.0091 10.7156C14.8034 10.7156 15.0754 11.3938 15.0754 11.9766C15.0754 12.5595 14.6232 12.7683 14.246 12.7683C13.8687 12.7683 13.8314 12.578 13.6871 12.378C13.5427 12.178 13.8712 11.421 13.3303 11.421C12.7894 11.421 12.6886 12.2912 12.6886 12.2912C12.6886 12.2912 12.8858 13.9711 14.5056 13.9421C16.1255 13.9131 16.8939 12.6608 16.6706 11.421C16.4473 10.1811 15.244 8.86365 13.1323 9.12987C11.0205 9.39609 10.1583 11.5298 10.5383 13.8101C10.9184 16.0904 13.6501 17.4116 15.7979 16.9362C17.9458 16.4609 20.085 14.9059 20.085 10.9635C20.085 7.02109 16.6706 4.65132 12.5992 5.04187C8.52784 5.43242 6.00051 8.9919 6.16228 13.2687C6.32405 17.5455 10.3822 19.8747 13.8138 19.9948C17.2454 20.1148 19.3491 18.1284 19.3491 18.1284C19.3491 18.1284 19.8222 17.7065 19.6367 17.377C19.4513 17.0476 18.9862 17.4579 18.9862 17.4579Z" fill="white"/>
</g>
<defs>
<clipPath id="clip0_268_2207">
<rect width="15" height="15" fill="white" transform="translate(5.62 5)"/>
</clipPath>
</defs>
</svg>
