<svg width="26" height="25" viewBox="0 0 26 25" fill="none" xmlns="http://www.w3.org/2000/svg">
<path d="M0.339966 3C0.339966 1.34315 1.68311 0 3.33997 0H22.34C23.9968 0 25.34 1.34315 25.34 3V22C25.34 23.6569 23.9968 25 22.34 25H3.33997C1.68311 25 0.339966 23.6569 0.339966 22V3Z" fill="#A552CC"/>
<g clip-path="url(#clip0_268_2456)">
<path fill-rule="evenodd" clip-rule="evenodd" d="M17.8738 16.5268C19.3885 15.3157 20.34 13.5657 20.34 11.6196C20.34 7.9637 16.9821 5 12.84 5C8.69783 5 5.33997 7.9637 5.33997 11.6196C5.33997 13.4954 6.22396 15.189 7.64432 16.3936C7.55824 16.6908 7.51102 17.0141 7.51102 17.3521C7.51102 18.8145 8.39466 20 9.48471 20C10.193 20 10.8141 19.4995 11.1623 18.7477C11.5105 19.4995 12.1317 20 12.84 20C13.4856 20 14.0588 19.5841 14.4189 18.9411C14.779 19.5841 15.3522 20 15.9978 20C17.0879 20 17.9715 18.8145 17.9715 17.3521C17.9715 17.064 17.9372 16.7865 17.8738 16.5268ZM17.1821 11.7509C17.1821 13.607 15.1939 15.1116 12.7413 15.1116C10.2887 15.1116 8.3005 13.607 8.3005 11.7509C8.3005 9.89483 10.2887 8.39018 12.7413 8.39018C15.1939 8.39018 17.1821 9.89483 17.1821 11.7509Z" fill="white"/>
</g>
<defs>
<clipPath id="clip0_268_2456">
<rect width="15" height="15" fill="white" transform="translate(5.33997 5)"/>
</clipPath>
</defs>
</svg>
