<svg width="25" height="25" viewBox="0 0 25 25" fill="none" xmlns="http://www.w3.org/2000/svg">
<path d="M0 3C0 1.34315 1.34315 0 3 0H22C23.6569 0 25 1.34315 25 3V22C25 23.6569 23.6569 25 22 25H3C1.34315 25 0 23.6569 0 22V3Z" fill="#748FC9"/>
<path fill-rule="evenodd" clip-rule="evenodd" d="M10.2357 19C12.4331 19 14.3143 17.7788 15.0909 16.0476C15.1004 16.0264 11.9729 16.8603 12.0726 16.5656C12.1171 16.4339 14.0343 15.7336 15.4311 14.9166C16.2339 14.4471 16.6036 13.4531 16.6036 13.4531C16.6036 13.4531 15.2511 14.1098 14.5673 14.2764C13.1894 14.6122 11.9765 14.576 11.9765 14.541C11.9765 14.4654 13.9905 14.0827 16.7898 12.3769C18.1065 11.5745 18.4641 10.1925 18.4641 10.1925C18.4641 10.1925 17.0165 11.0547 16.1414 11.3394C14.0661 12.0145 12.1723 12.218 12.1723 12.1266C12.1723 11.931 13.8389 11.4727 15.606 10.6165C16.5247 10.1714 17.3204 9.58975 18.2424 8.94296C19.7512 7.88473 20 6 20 6C20 6 18.512 6.95977 17.7858 7.2785C14.7893 8.59369 12.1434 9.28357 10.2357 9.43293C7.35594 9.6584 5 11.6677 5 14.2764C5 16.8852 7.3441 19 10.2357 19Z" fill="white"/>
</svg>
