<svg width="26" height="25" viewBox="0 0 26 25" fill="none" xmlns="http://www.w3.org/2000/svg">
<path d="M0.0999908 3C0.0999908 1.34315 1.44314 0 3.09999 0H22.1C23.7568 0 25.1 1.34315 25.1 3V22C25.1 23.6569 23.7568 25 22.1 25H3.09999C1.44314 25 0.0999908 23.6569 0.0999908 22V3Z" fill="#0F6AC0"/>
<path fill-rule="evenodd" clip-rule="evenodd" d="M13.3277 12.4672C13.4293 12.4052 13.5156 12.2753 13.5851 12.1309C14.5005 12.5051 15.1438 13.3891 15.1438 14.4201C15.1438 15.7897 14.0085 16.9001 12.6081 16.9001C12.0333 16.9001 11.5031 16.7129 11.0778 16.3976C10.9383 16.3316 10.8235 16.2681 10.7296 16.2162C10.5839 16.1356 10.4883 16.0828 10.4285 16.0911C10.2536 16.1152 10.3044 16.2761 10.3505 16.4222C10.3819 16.5215 10.4111 16.614 10.3659 16.6522C10.3186 16.6921 10.1654 16.5461 9.98644 16.3754C9.74281 16.1432 9.45137 15.8653 9.31393 15.9487C9.20527 16.0147 9.31077 16.1938 9.43991 16.4129L9.44949 16.4292C9.50404 16.5218 9.56726 16.6162 9.62495 16.7022C9.74223 16.8772 9.83668 17.0181 9.78942 17.042C9.73229 17.0708 9.33427 16.8022 8.99885 16.4292C8.86938 16.2852 8.74399 16.1292 8.62745 15.9842V15.9842C8.37236 15.6668 8.15984 15.4024 8.04055 15.4337C7.89704 15.4714 8.0056 15.7674 8.16512 16.0522C8.23971 16.1855 8.32745 16.3211 8.40342 16.4386V16.4386C8.52157 16.6212 8.61125 16.7598 8.57873 16.7769C8.53484 16.7998 8.14868 16.4233 7.8864 15.9487C7.73061 15.6669 7.5998 15.3554 7.4939 15.1032C7.37905 14.8297 7.2935 14.626 7.23717 14.6055C7.04145 14.5343 7.04145 14.9334 7.11995 15.5093C7.13019 15.5845 7.14544 15.6633 7.16421 15.7435C7.92547 18.2066 10.264 20 13.0307 20C16.415 20 19.1585 17.3168 19.1585 14.0068C19.1585 10.8564 16.6733 8.27384 13.5157 8.03205C13.5197 7.88364 13.5971 7.58935 13.5971 7.58935C13.5971 7.58935 14.1546 6.24064 14.184 5.95244C14.186 5.93331 14.1883 5.91252 14.1908 5.89039C14.2255 5.57899 14.2901 5 13.792 5C13.526 5 13.4023 5.19789 13.2608 5.42422V5.42422C13.2065 5.5111 13.1495 5.60218 13.0809 5.68786C12.5867 6.30499 11.7558 7.07565 11.2846 7.48622C10.2887 8.35402 9.31156 9.06723 8.74168 9.48318L8.74165 9.48321C8.48246 9.67238 8.30753 9.80009 8.25339 9.85285C7.8454 10.2506 6.38254 12.8892 6.38254 12.8892C6.38254 12.8892 5.90947 13.7358 6.07762 13.9075C6.24577 14.0792 6.65126 14.0398 6.65126 14.0398C6.65126 14.0398 12.0987 12.7901 12.5865 12.6916C12.7178 12.665 12.8105 12.6497 12.8816 12.638C13.0748 12.6061 13.1095 12.6003 13.3277 12.4672ZM9.47609 10.8612C9.18368 11.1392 8.69873 11.8026 8.69873 11.8026C8.69873 11.8026 9.60002 11.8581 10.0964 11.3863C10.5928 10.9145 10.4791 10.1103 10.4791 10.1103C10.4791 10.1103 9.76848 10.5833 9.47609 10.8612Z" fill="white"/>
</svg>
