<svg width="57" height="25" viewBox="0 0 57 25" fill="none" xmlns="http://www.w3.org/2000/svg">
<path d="M0 3C0 1.34315 1.34315 0 3 0H54C55.6569 0 57 1.34315 57 3V22C57 23.6569 55.6569 25 54 25H3C1.34314 25 0 23.6569 0 22V3Z" fill="#417D9A"/>
<path fill-rule="evenodd" clip-rule="evenodd" d="M5.0015 12.5091C4.9995 12.5057 4.9995 12.5015 5.00149 12.4981L8.7733 6.05374C8.77526 6.0504 8.77886 6.04834 8.78273 6.04834H16.2586C16.2625 6.04834 16.2661 6.05041 16.2681 6.05379L19.9985 12.4981C20.0005 12.5015 20.0005 12.5057 19.9985 12.509L16.2681 18.9461C16.2661 18.9495 16.2625 18.9516 16.2586 18.9516H8.78273C8.77886 18.9516 8.77526 18.9495 8.7733 18.9462L5.0015 12.5091ZM15.9751 12.5C15.9751 14.4186 14.4198 15.9739 12.5012 15.9739C10.5826 15.9739 9.02724 14.4186 9.02724 12.5C9.02724 10.5813 10.5826 9.02602 12.5012 9.02602C14.4198 9.02602 15.9751 10.5813 15.9751 12.5Z" fill="white"/>
<path d="M25.7617 14.1445H27.0566C27.1035 14.5625 27.3125 14.8984 27.6836 15.1523C28.0547 15.4062 28.5195 15.5332 29.0781 15.5332C29.6094 15.5332 30.0469 15.4102 30.3906 15.1641C30.7383 14.918 30.9121 14.6055 30.9121 14.2266C30.9121 13.8984 30.7891 13.6309 30.543 13.4238C30.2969 13.2129 29.9004 13.041 29.3535 12.9082L28.2578 12.6445C27.4805 12.457 26.9062 12.1777 26.5352 11.8066C26.168 11.4355 25.9844 10.9551 25.9844 10.3652C25.9844 9.63867 26.2695 9.04688 26.8398 8.58984C27.4141 8.13281 28.1543 7.9043 29.0605 7.9043C29.9512 7.9043 30.6777 8.13281 31.2402 8.58984C31.8027 9.04297 32.0938 9.63477 32.1133 10.3652H30.8359C30.7969 9.94727 30.6152 9.61719 30.291 9.375C29.9707 9.13281 29.5547 9.01172 29.043 9.01172C28.5352 9.01172 28.1211 9.12891 27.8008 9.36328C27.4844 9.59766 27.3262 9.90234 27.3262 10.2773C27.3262 10.5742 27.4453 10.8184 27.6836 11.0098C27.9219 11.1973 28.3145 11.3594 28.8613 11.4961L29.793 11.7246C30.6602 11.9277 31.2852 12.2148 31.668 12.5859C32.0547 12.9531 32.248 13.4473 32.248 14.0684C32.248 14.8574 31.9551 15.4844 31.3691 15.9492C30.7832 16.4102 29.9883 16.6406 28.9844 16.6406C28.043 16.6406 27.2793 16.416 26.6934 15.9668C26.1113 15.5137 25.8008 14.9062 25.7617 14.1445ZM33.6426 8.87695H34.9141V10.3359H36.0859V11.3379H34.9141V14.7363C34.9141 15.002 34.9746 15.1973 35.0957 15.3223C35.2168 15.4473 35.4062 15.5098 35.6641 15.5098C35.8516 15.5098 35.9902 15.5 36.0801 15.4805V16.4824C35.9238 16.5215 35.6895 16.541 35.377 16.541C34.7559 16.541 34.3105 16.4141 34.041 16.1602C33.7754 15.9023 33.6426 15.4746 33.6426 14.877V11.3379H32.7461V10.3359H33.6426V8.87695ZM40.627 11.6895C40.3496 11.3926 39.9922 11.2441 39.5547 11.2441C39.1172 11.2441 38.7539 11.3945 38.4648 11.6953C38.1758 11.9922 38.0156 12.377 37.9844 12.8496H41.0664C41.0508 12.373 40.9043 11.9863 40.627 11.6895ZM41.0605 14.6895H42.2617C42.1719 15.2559 41.8828 15.7188 41.3945 16.0781C40.9062 16.4375 40.3105 16.6172 39.6074 16.6172C38.7051 16.6172 37.9941 16.334 37.4746 15.7676C36.959 15.1973 36.7012 14.4238 36.7012 13.4473C36.7012 12.4785 36.959 11.6992 37.4746 11.1094C37.9941 10.5195 38.6875 10.2246 39.5547 10.2246C40.4062 10.2246 41.082 10.5039 41.582 11.0625C42.082 11.6172 42.332 12.3633 42.332 13.3008V13.7344H37.9785V13.8105C37.9785 14.3496 38.1289 14.7812 38.4297 15.1055C38.7305 15.4297 39.1328 15.5918 39.6367 15.5918C39.9922 15.5918 40.2969 15.5098 40.5508 15.3457C40.8047 15.1816 40.9746 14.9629 41.0605 14.6895ZM46.9668 11.6895C46.6895 11.3926 46.332 11.2441 45.8945 11.2441C45.457 11.2441 45.0938 11.3945 44.8047 11.6953C44.5156 11.9922 44.3555 12.377 44.3242 12.8496H47.4062C47.3906 12.373 47.2441 11.9863 46.9668 11.6895ZM47.4004 14.6895H48.6016C48.5117 15.2559 48.2227 15.7188 47.7344 16.0781C47.2461 16.4375 46.6504 16.6172 45.9473 16.6172C45.0449 16.6172 44.334 16.334 43.8145 15.7676C43.2988 15.1973 43.041 14.4238 43.041 13.4473C43.041 12.4785 43.2988 11.6992 43.8145 11.1094C44.334 10.5195 45.0273 10.2246 45.8945 10.2246C46.7461 10.2246 47.4219 10.5039 47.9219 11.0625C48.4219 11.6172 48.6719 12.3633 48.6719 13.3008V13.7344H44.3184V13.8105C44.3184 14.3496 44.4688 14.7812 44.7695 15.1055C45.0703 15.4297 45.4727 15.5918 45.9766 15.5918C46.332 15.5918 46.6367 15.5098 46.8906 15.3457C47.1445 15.1816 47.3145 14.9629 47.4004 14.6895ZM49.7031 16.5V8.04492H50.9688V16.5H49.7031Z" fill="white"/>
</svg>
