<svg width="46" height="25" viewBox="0 0 46 25" fill="none" xmlns="http://www.w3.org/2000/svg">
<path d="M0 3C0 1.34315 1.34315 0 3 0H43C44.6569 0 46 1.34315 46 3V22C46 23.6569 44.6569 25 43 25H3C1.34315 25 0 23.6569 0 22V3Z" fill="#61CEC0"/>
<path d="M12.2766 7.79028L8.55115 5.94519L8.66383 10.069L12.1814 11.8111L12.2766 7.79028Z" fill="white"/>
<path d="M16.4126 10.1192L16.3653 5.96216L12.7421 7.93472L12.7868 11.8598L16.4126 10.1192Z" fill="white"/>
<path d="M16.4105 14.5657L19.9999 12.5127L16.4087 10.6239L12.8191 12.5094L16.4105 14.5657Z" fill="white"/>
<path d="M12.1808 12.5127L8.59146 14.5657L5 12.5094L8.5896 10.6239L12.1808 12.5127Z" fill="white"/>
<path d="M16.4667 19.0173L12.7412 17.1722L12.8365 13.1514L16.354 14.8935L16.4667 19.0173Z" fill="white"/>
<path d="M8.63245 14.8978L8.6798 19.0549L12.303 17.0823L12.2583 13.1572L8.63245 14.8978Z" fill="white"/>
<path d="M27.3867 16.5H26.0742V8.04492H27.3867V16.5ZM34.084 12.457H32.877C32.8105 12.1094 32.6504 11.8262 32.3965 11.6074C32.1465 11.3887 31.8242 11.2793 31.4297 11.2793C30.9375 11.2793 30.543 11.4727 30.2461 11.8594C29.9531 12.2422 29.8066 12.7617 29.8066 13.418C29.8066 14.0859 29.9531 14.6094 30.2461 14.9883C30.543 15.3672 30.9414 15.5566 31.4414 15.5566C31.8281 15.5566 32.1445 15.457 32.3906 15.2578C32.6406 15.0547 32.8027 14.7734 32.877 14.4141H34.0957C34.0293 15.0742 33.752 15.6074 33.2637 16.0137C32.7793 16.416 32.168 16.6172 31.4297 16.6172C30.543 16.6172 29.8359 16.332 29.3086 15.7617C28.7812 15.1875 28.5176 14.4062 28.5176 13.418C28.5176 12.4414 28.7812 11.666 29.3086 11.0918C29.8359 10.5137 30.5391 10.2246 31.418 10.2246C32.1836 10.2246 32.8047 10.4395 33.2812 10.8691C33.7578 11.2949 34.0254 11.8242 34.084 12.457ZM38.6426 11.6895C38.3652 11.3926 38.0078 11.2441 37.5703 11.2441C37.1328 11.2441 36.7695 11.3945 36.4805 11.6953C36.1914 11.9922 36.0312 12.377 36 12.8496H39.082C39.0664 12.373 38.9199 11.9863 38.6426 11.6895ZM39.0762 14.6895H40.2773C40.1875 15.2559 39.8984 15.7188 39.4102 16.0781C38.9219 16.4375 38.3262 16.6172 37.623 16.6172C36.7207 16.6172 36.0098 16.334 35.4902 15.7676C34.9746 15.1973 34.7168 14.4238 34.7168 13.4473C34.7168 12.4785 34.9746 11.6992 35.4902 11.1094C36.0098 10.5195 36.7031 10.2246 37.5703 10.2246C38.4219 10.2246 39.0977 10.5039 39.5977 11.0625C40.0977 11.6172 40.3477 12.3633 40.3477 13.3008V13.7344H35.9941V13.8105C35.9941 14.3496 36.1445 14.7812 36.4453 15.1055C36.7461 15.4297 37.1484 15.5918 37.6523 15.5918C38.0078 15.5918 38.3125 15.5098 38.5664 15.3457C38.8203 15.1816 38.9902 14.9629 39.0762 14.6895Z" fill="white"/>
</svg>
