<svg width="73" height="25" viewBox="0 0 73 25" fill="none" xmlns="http://www.w3.org/2000/svg">
<path d="M0 3C0 1.34315 1.34315 0 3 0H70C71.6569 0 73 1.34315 73 3V22C73 23.6569 71.6569 25 70 25H3C1.34315 25 0 23.6569 0 22V3Z" fill="#D04164"/>
<path fill-rule="evenodd" clip-rule="evenodd" d="M7.58692 6.24704C7.76845 5.53031 8.41776 5 9.19091 5C9.77084 5 10.2811 5.29838 10.5765 5.75H11.0603C11.3609 5.44155 11.7808 5.25 12.2455 5.25C12.9267 5.25 13.5118 5.66176 13.7655 6.25H14.1705C14.4243 6.09156 14.7242 6 15.0454 6C15.7267 6 16.3118 6.41176 16.5655 7H17.6669C17.6763 7 17.6851 7.00254 17.6927 7.00696C17.743 7.00235 17.794 7 17.8454 7C18.7592 7 19.5 7.74076 19.5 8.65455V13.6158L19.5 13.625L19.5 13.6342V13.7057C19.5 13.7359 19.4992 13.7661 19.4975 13.7961C19.398 17.2378 16.3032 20 12.5 20C8.634 20 5.5 17.1458 5.5 13.625C5.5 11.9255 6.23022 10.3813 7.42051 9.23853C7.41754 10.8954 7.44553 12.6082 7.57453 12.5788C7.91995 12.5001 7.65007 7.36834 7.58692 6.24704Z" fill="white"/>
<path d="M27.4629 16.5H26.1504V8.04492H31.4297V9.17578H27.4629V11.8535H31.0957V12.9609H27.4629V16.5ZM32.4609 16.5V10.3359H33.7266V16.5H32.4609ZM33.6152 9.22266C33.4707 9.36328 33.2969 9.43359 33.0938 9.43359C32.8906 9.43359 32.7168 9.36328 32.5723 9.22266C32.4316 9.08203 32.3613 8.91211 32.3613 8.71289C32.3613 8.50977 32.4316 8.33789 32.5723 8.19727C32.7168 8.05664 32.8906 7.98633 33.0938 7.98633C33.3008 7.98633 33.4746 8.05664 33.6152 8.19727C33.7598 8.33789 33.832 8.50977 33.832 8.71289C33.832 8.91211 33.7598 9.08203 33.6152 9.22266ZM37.6465 15.4746C38.1426 15.4746 38.5391 15.2871 38.8359 14.9121C39.1367 14.5371 39.2871 14.0332 39.2871 13.4004C39.2871 12.7676 39.1367 12.2598 38.8359 11.877C38.5391 11.4941 38.1426 11.3027 37.6465 11.3027C37.1582 11.3027 36.7676 11.4922 36.4746 11.8711C36.1855 12.25 36.041 12.7598 36.041 13.4004C36.041 14.041 36.1855 14.5469 36.4746 14.918C36.7676 15.2891 37.1582 15.4746 37.6465 15.4746ZM37.6582 18.8203C36.9395 18.8203 36.3301 18.6484 35.8301 18.3047C35.334 17.9609 35.0469 17.5195 34.9688 16.9805H36.2402C36.3301 17.2383 36.5059 17.4453 36.7676 17.6016C37.0332 17.7578 37.3457 17.8359 37.7051 17.8359C38.1934 17.8359 38.5781 17.707 38.8594 17.4492C39.1406 17.1953 39.2812 16.8555 39.2812 16.4297V15.416H39.2578C39.082 15.7559 38.8203 16.0254 38.4727 16.2246C38.1289 16.4238 37.7402 16.5234 37.3066 16.5234C36.5293 16.5234 35.9082 16.2422 35.4434 15.6797C34.9785 15.1133 34.7461 14.3516 34.7461 13.3945C34.7461 12.4258 34.9785 11.6582 35.4434 11.0918C35.9121 10.5215 36.543 10.2363 37.3359 10.2363C37.7695 10.2363 38.1582 10.3398 38.502 10.5469C38.8457 10.75 39.1113 11.0312 39.2988 11.3906H39.3223V10.3359H40.5527V16.3887C40.5527 17.123 40.2891 17.7109 39.7617 18.1523C39.2383 18.5977 38.5371 18.8203 37.6582 18.8203ZM41.8535 16.5V8.04492H43.1074V11.3672H43.1367C43.3086 11.0039 43.5605 10.7246 43.8926 10.5293C44.2246 10.3301 44.623 10.2305 45.0879 10.2305C45.7598 10.2305 46.2871 10.4375 46.6699 10.8516C47.0566 11.2656 47.25 11.8242 47.25 12.5273V16.5H45.9785V12.7734C45.9785 12.3125 45.8633 11.9551 45.6328 11.7012C45.4062 11.4473 45.0723 11.3203 44.6309 11.3203C44.166 11.3203 43.7969 11.4688 43.5234 11.7656C43.2539 12.0586 43.1191 12.4492 43.1191 12.9375V16.5H41.8535ZM48.8438 8.87695H50.1152V10.3359H51.2871V11.3379H50.1152V14.7363C50.1152 15.002 50.1758 15.1973 50.2969 15.3223C50.418 15.4473 50.6074 15.5098 50.8652 15.5098C51.0527 15.5098 51.1914 15.5 51.2812 15.4805V16.4824C51.125 16.5215 50.8906 16.541 50.5781 16.541C49.957 16.541 49.5117 16.4141 49.2422 16.1602C48.9766 15.9023 48.8438 15.4746 48.8438 14.877V11.3379H47.9473V10.3359H48.8438V8.87695ZM52.3711 16.5V10.3359H53.6367V16.5H52.3711ZM53.5254 9.22266C53.3809 9.36328 53.207 9.43359 53.0039 9.43359C52.8008 9.43359 52.627 9.36328 52.4824 9.22266C52.3418 9.08203 52.2715 8.91211 52.2715 8.71289C52.2715 8.50977 52.3418 8.33789 52.4824 8.19727C52.627 8.05664 52.8008 7.98633 53.0039 7.98633C53.2109 7.98633 53.3848 8.05664 53.5254 8.19727C53.6699 8.33789 53.7422 8.50977 53.7422 8.71289C53.7422 8.91211 53.6699 9.08203 53.5254 9.22266ZM54.9316 16.5V10.3359H56.1387V11.3672H56.168C56.3398 11.0078 56.5898 10.7285 56.918 10.5293C57.2461 10.3301 57.6426 10.2305 58.1074 10.2305C58.7832 10.2305 59.3086 10.4336 59.6836 10.8398C60.0586 11.2422 60.2461 11.7988 60.2461 12.5098V16.5H58.9746V12.7559C58.9746 12.2871 58.8633 11.9316 58.6406 11.6895C58.4219 11.4434 58.0957 11.3203 57.6621 11.3203C57.2168 11.3203 56.8613 11.4648 56.5957 11.7539C56.3301 12.043 56.1973 12.4277 56.1973 12.9082V16.5H54.9316ZM64.0957 15.4746C64.5918 15.4746 64.9883 15.2871 65.2852 14.9121C65.5859 14.5371 65.7363 14.0332 65.7363 13.4004C65.7363 12.7676 65.5859 12.2598 65.2852 11.877C64.9883 11.4941 64.5918 11.3027 64.0957 11.3027C63.6074 11.3027 63.2168 11.4922 62.9238 11.8711C62.6348 12.25 62.4902 12.7598 62.4902 13.4004C62.4902 14.041 62.6348 14.5469 62.9238 14.918C63.2168 15.2891 63.6074 15.4746 64.0957 15.4746ZM64.1074 18.8203C63.3887 18.8203 62.7793 18.6484 62.2793 18.3047C61.7832 17.9609 61.4961 17.5195 61.418 16.9805H62.6895C62.7793 17.2383 62.9551 17.4453 63.2168 17.6016C63.4824 17.7578 63.7949 17.8359 64.1543 17.8359C64.6426 17.8359 65.0273 17.707 65.3086 17.4492C65.5898 17.1953 65.7305 16.8555 65.7305 16.4297V15.416H65.707C65.5312 15.7559 65.2695 16.0254 64.9219 16.2246C64.5781 16.4238 64.1895 16.5234 63.7559 16.5234C62.9785 16.5234 62.3574 16.2422 61.8926 15.6797C61.4277 15.1133 61.1953 14.3516 61.1953 13.3945C61.1953 12.4258 61.4277 11.6582 61.8926 11.0918C62.3613 10.5215 62.9922 10.2363 63.7852 10.2363C64.2188 10.2363 64.6074 10.3398 64.9512 10.5469C65.2949 10.75 65.5605 11.0312 65.748 11.3906H65.7715V10.3359H67.002V16.3887C67.002 17.123 66.7383 17.7109 66.2109 18.1523C65.6875 18.5977 64.9863 18.8203 64.1074 18.8203Z" fill="white"/>
</svg>
