<svg width="68" height="25" viewBox="0 0 68 25" fill="none" xmlns="http://www.w3.org/2000/svg">
<path d="M0 3C0 1.34315 1.34315 0 3 0H65C66.6569 0 68 1.34315 68 3V22C68 23.6569 66.6569 25 65 25H3C1.34314 25 0 23.6569 0 22V3Z" fill="#9DA0AA"/>
<path fill-rule="evenodd" clip-rule="evenodd" d="M20 12.5C20 16.6421 16.6421 20 12.5 20C8.35787 20 5 16.6421 5 12.5C5 8.35787 8.35787 5 12.5 5C16.6421 5 20 8.35787 20 12.5ZM16.7857 12.5C16.7857 14.8669 14.8669 16.7857 12.5 16.7857C10.1331 16.7857 8.2143 14.8669 8.2143 12.5C8.2143 10.1331 10.1331 8.2143 12.5 8.2143C14.8669 8.2143 16.7857 10.1331 16.7857 12.5Z" fill="white"/>
<path d="M27.2129 16.5H25.9355V8.04492H27.125L31.5078 14.2793H31.5547V8.04492H32.832V16.5H31.6484L27.2656 10.2715H27.2129V16.5ZM39.0195 15.7617C38.4883 16.332 37.7793 16.6172 36.8926 16.6172C36.0059 16.6172 35.2969 16.332 34.7656 15.7617C34.2344 15.1875 33.9688 14.4062 33.9688 13.418C33.9688 12.4336 34.2344 11.6562 34.7656 11.0859C35.2969 10.5117 36.0059 10.2246 36.8926 10.2246C37.7793 10.2246 38.4883 10.5117 39.0195 11.0859C39.5508 11.6562 39.8164 12.4336 39.8164 13.418C39.8164 14.4062 39.5508 15.1875 39.0195 15.7617ZM36.8926 15.5742C37.3965 15.5742 37.7949 15.3848 38.0879 15.0059C38.3809 14.627 38.5273 14.0977 38.5273 13.418C38.5273 12.7422 38.3789 12.2148 38.082 11.8359C37.7891 11.457 37.3926 11.2676 36.8926 11.2676C36.3926 11.2676 35.9941 11.457 35.6973 11.8359C35.4043 12.2148 35.2578 12.7422 35.2578 13.418C35.2578 14.0977 35.4043 14.627 35.6973 15.0059C35.9941 15.3848 36.3926 15.5742 36.8926 15.5742ZM40.7949 16.5V10.3359H42.002V11.3848H42.0312C42.1328 11.0254 42.3145 10.7441 42.5762 10.541C42.8379 10.3379 43.1504 10.2363 43.5137 10.2363C43.6348 10.2363 43.7793 10.252 43.9473 10.2832V11.4609C43.834 11.4141 43.6445 11.3906 43.3789 11.3906C42.9727 11.3906 42.6504 11.5176 42.4121 11.7715C42.1777 12.0254 42.0605 12.3711 42.0605 12.8086V16.5H40.7949ZM44.7324 16.5V10.3359H45.9395V11.373H45.9688C46.1094 11.0254 46.334 10.748 46.6426 10.541C46.9512 10.334 47.3105 10.2305 47.7207 10.2305C48.1465 10.2305 48.5078 10.3359 48.8047 10.5469C49.1055 10.7578 49.3184 11.0547 49.4434 11.4375H49.4727C49.6328 11.0625 49.8828 10.7676 50.2227 10.5527C50.5664 10.3379 50.957 10.2305 51.3945 10.2305C52.0039 10.2305 52.4922 10.416 52.8594 10.7871C53.2266 11.1582 53.4102 11.6504 53.4102 12.2637V16.5H52.1387V12.5684C52.1387 12.1699 52.0352 11.8613 51.8281 11.6426C51.625 11.4238 51.3359 11.3145 50.9609 11.3145C50.5859 11.3145 50.2793 11.4395 50.041 11.6895C49.8066 11.9395 49.6895 12.2598 49.6895 12.6504V16.5H48.4473V12.4746C48.4473 12.1191 48.3418 11.8379 48.1309 11.6309C47.9199 11.4199 47.6367 11.3145 47.2812 11.3145C46.9062 11.3145 46.5977 11.4453 46.3555 11.707C46.1172 11.9648 45.998 12.293 45.998 12.6914V16.5H44.7324ZM56.791 15.6035C57.2363 15.6035 57.6094 15.4688 57.9102 15.1992C58.2148 14.9258 58.3672 14.5898 58.3672 14.1914V13.7051L56.8496 13.7988C56.4707 13.8262 56.1777 13.9199 55.9707 14.0801C55.7676 14.2363 55.666 14.4473 55.666 14.7129C55.666 14.9824 55.7676 15.1992 55.9707 15.3633C56.1777 15.5234 56.4512 15.6035 56.791 15.6035ZM56.4395 16.6055C55.834 16.6055 55.3398 16.4336 54.957 16.0898C54.5781 15.7461 54.3887 15.2988 54.3887 14.748C54.3887 14.209 54.5879 13.7812 54.9863 13.4648C55.3848 13.1445 55.9492 12.9648 56.6797 12.9258L58.3672 12.8262V12.3516C58.3672 12.0078 58.2578 11.7402 58.0391 11.5488C57.8203 11.3535 57.5176 11.2559 57.1309 11.2559C56.7715 11.2559 56.4785 11.3359 56.252 11.4961C56.0293 11.6562 55.8887 11.877 55.8301 12.1582H54.6348C54.6699 11.5879 54.916 11.123 55.373 10.7637C55.8301 10.4043 56.4316 10.2246 57.1777 10.2246C57.9238 10.2246 58.5176 10.4082 58.959 10.7754C59.4043 11.1426 59.627 11.6348 59.627 12.252V16.5H58.4141V15.4863H58.3848C58.209 15.8262 57.9414 16.0977 57.582 16.3008C57.2266 16.5039 56.8457 16.6055 56.4395 16.6055ZM60.9043 16.5V8.04492H62.1699V16.5H60.9043Z" fill="white"/>
</svg>
