<svg width="61" height="25" viewBox="0 0 61 25" fill="none" xmlns="http://www.w3.org/2000/svg">
<path d="M0 3C0 1.34315 1.34315 0 3 0H58C59.6569 0 61 1.34315 61 3V22C61 23.6569 59.6569 25 58 25H3C1.34315 25 0 23.6569 0 22V3Z" fill="#4A90DA"/>
<path fill-rule="evenodd" clip-rule="evenodd" d="M17.3661 15.1523C17.3661 17.8296 15.1875 20 12.5001 20C9.81262 20 7.63403 17.8296 7.63403 15.1523C7.63403 12.5484 12.2368 5.39693 12.4893 5.00667C12.495 4.99778 12.5051 4.99778 12.5108 5.00667C12.7633 5.39693 17.3661 12.5484 17.3661 15.1523ZM11.6889 18.4458C9.21965 17.9056 9.64219 15.1703 9.64219 15.1703C9.64219 15.1703 10.3165 16.8215 11.9527 17.3563C13.589 17.8912 15.5664 17.1067 15.5664 17.1067C15.5664 17.1067 14.1582 18.9861 11.6889 18.4458Z" fill="white"/>
<path d="M30.7676 10.125L28.9453 16.5H27.7031L25.4238 8.04492H26.7891L28.3535 14.666H28.4004L30.1875 8.04492H31.4062L33.1992 14.666H33.2461L34.8105 8.04492H36.1758L33.8906 16.5H32.6543L30.8262 10.125H30.7676ZM38.4141 15.6035C38.8594 15.6035 39.2324 15.4688 39.5332 15.1992C39.8379 14.9258 39.9902 14.5898 39.9902 14.1914V13.7051L38.4727 13.7988C38.0938 13.8262 37.8008 13.9199 37.5938 14.0801C37.3906 14.2363 37.2891 14.4473 37.2891 14.7129C37.2891 14.9824 37.3906 15.1992 37.5938 15.3633C37.8008 15.5234 38.0742 15.6035 38.4141 15.6035ZM38.0625 16.6055C37.457 16.6055 36.9629 16.4336 36.5801 16.0898C36.2012 15.7461 36.0117 15.2988 36.0117 14.748C36.0117 14.209 36.2109 13.7812 36.6094 13.4648C37.0078 13.1445 37.5723 12.9648 38.3027 12.9258L39.9902 12.8262V12.3516C39.9902 12.0078 39.8809 11.7402 39.6621 11.5488C39.4434 11.3535 39.1406 11.2559 38.7539 11.2559C38.3945 11.2559 38.1016 11.3359 37.875 11.4961C37.6523 11.6562 37.5117 11.877 37.4531 12.1582H36.2578C36.293 11.5879 36.5391 11.123 36.9961 10.7637C37.4531 10.4043 38.0547 10.2246 38.8008 10.2246C39.5469 10.2246 40.1406 10.4082 40.582 10.7754C41.0273 11.1426 41.25 11.6348 41.25 12.252V16.5H40.0371V15.4863H40.0078C39.832 15.8262 39.5645 16.0977 39.2051 16.3008C38.8496 16.5039 38.4688 16.6055 38.0625 16.6055ZM42.8496 8.87695H44.1211V10.3359H45.293V11.3379H44.1211V14.7363C44.1211 15.002 44.1816 15.1973 44.3027 15.3223C44.4238 15.4473 44.6133 15.5098 44.8711 15.5098C45.0586 15.5098 45.1973 15.5 45.2871 15.4805V16.4824C45.1309 16.5215 44.8965 16.541 44.584 16.541C43.9629 16.541 43.5176 16.4141 43.248 16.1602C42.9824 15.9023 42.8496 15.4746 42.8496 14.877V11.3379H41.9531V10.3359H42.8496V8.87695ZM49.834 11.6895C49.5566 11.3926 49.1992 11.2441 48.7617 11.2441C48.3242 11.2441 47.9609 11.3945 47.6719 11.6953C47.3828 11.9922 47.2227 12.377 47.1914 12.8496H50.2734C50.2578 12.373 50.1113 11.9863 49.834 11.6895ZM50.2676 14.6895H51.4688C51.3789 15.2559 51.0898 15.7188 50.6016 16.0781C50.1133 16.4375 49.5176 16.6172 48.8145 16.6172C47.9121 16.6172 47.2012 16.334 46.6816 15.7676C46.166 15.1973 45.9082 14.4238 45.9082 13.4473C45.9082 12.4785 46.166 11.6992 46.6816 11.1094C47.2012 10.5195 47.8945 10.2246 48.7617 10.2246C49.6133 10.2246 50.2891 10.5039 50.7891 11.0625C51.2891 11.6172 51.5391 12.3633 51.5391 13.3008V13.7344H47.1855V13.8105C47.1855 14.3496 47.3359 14.7812 47.6367 15.1055C47.9375 15.4297 48.3398 15.5918 48.8438 15.5918C49.1992 15.5918 49.5039 15.5098 49.7578 15.3457C50.0117 15.1816 50.1816 14.9629 50.2676 14.6895ZM52.5234 16.5V10.3359H53.7305V11.3848H53.7598C53.8613 11.0254 54.043 10.7441 54.3047 10.541C54.5664 10.3379 54.8789 10.2363 55.2422 10.2363C55.3633 10.2363 55.5078 10.252 55.6758 10.2832V11.4609C55.5625 11.4141 55.373 11.3906 55.1074 11.3906C54.7012 11.3906 54.3789 11.5176 54.1406 11.7715C53.9062 12.0254 53.7891 12.3711 53.7891 12.8086V16.5H52.5234Z" fill="white"/>
</svg>
