<svg width="55" height="25" viewBox="0 0 55 25" fill="none" xmlns="http://www.w3.org/2000/svg">
<path d="M0 3C0 1.34315 1.34315 0 3 0H52C53.6569 0 55 1.34315 55 3V22C55 23.6569 53.6569 25 52 25H3C1.34315 25 0 23.6569 0 22V3Z" fill="#58575F"/>
<path fill-rule="evenodd" clip-rule="evenodd" d="M11.7302 18.2671C12.0151 18.3107 12.307 18.3333 12.6042 18.3333C15.7683 18.3333 18.3333 15.7683 18.3333 12.6042C18.3333 9.44003 15.7683 6.875 12.6042 6.875C12.3919 6.875 12.1823 6.88655 11.976 6.90905C13.5456 8.09817 14.5833 10.1581 14.5833 12.5C14.5833 14.9621 13.4363 17.1125 11.7302 18.2671ZM12.5 20C16.6421 20 20 16.6421 20 12.5C20 8.35786 16.6421 5 12.5 5C8.35785 5 5 8.35786 5 12.5C5 16.6421 8.35785 20 12.5 20Z" fill="white"/>
<path d="M26.0508 8.04492H29.0332C30.291 8.04492 31.2715 8.41406 31.9746 9.15234C32.6816 9.89062 33.0352 10.9258 33.0352 12.2578C33.0352 13.5938 32.6836 14.6348 31.9805 15.3809C31.2773 16.127 30.2949 16.5 29.0332 16.5H26.0508V8.04492ZM27.3633 9.17578V15.3633H28.9102C29.8086 15.3633 30.4961 15.0977 30.9727 14.5664C31.4531 14.0352 31.6934 13.2695 31.6934 12.2695C31.6934 11.2734 31.4531 10.5098 30.9727 9.97852C30.4922 9.44336 29.8047 9.17578 28.9102 9.17578H27.3633ZM36.293 15.6035C36.7383 15.6035 37.1113 15.4688 37.4121 15.1992C37.7168 14.9258 37.8691 14.5898 37.8691 14.1914V13.7051L36.3516 13.7988C35.9727 13.8262 35.6797 13.9199 35.4727 14.0801C35.2695 14.2363 35.168 14.4473 35.168 14.7129C35.168 14.9824 35.2695 15.1992 35.4727 15.3633C35.6797 15.5234 35.9531 15.6035 36.293 15.6035ZM35.9414 16.6055C35.3359 16.6055 34.8418 16.4336 34.459 16.0898C34.0801 15.7461 33.8906 15.2988 33.8906 14.748C33.8906 14.209 34.0898 13.7812 34.4883 13.4648C34.8867 13.1445 35.4512 12.9648 36.1816 12.9258L37.8691 12.8262V12.3516C37.8691 12.0078 37.7598 11.7402 37.541 11.5488C37.3223 11.3535 37.0195 11.2559 36.6328 11.2559C36.2734 11.2559 35.9805 11.3359 35.7539 11.4961C35.5312 11.6562 35.3906 11.877 35.332 12.1582H34.1367C34.1719 11.5879 34.418 11.123 34.875 10.7637C35.332 10.4043 35.9336 10.2246 36.6797 10.2246C37.4258 10.2246 38.0195 10.4082 38.4609 10.7754C38.9062 11.1426 39.1289 11.6348 39.1289 12.252V16.5H37.916V15.4863H37.8867C37.7109 15.8262 37.4434 16.0977 37.084 16.3008C36.7285 16.5039 36.3477 16.6055 35.9414 16.6055ZM40.3594 16.5V10.3359H41.5664V11.3848H41.5957C41.6973 11.0254 41.8789 10.7441 42.1406 10.541C42.4023 10.3379 42.7148 10.2363 43.0781 10.2363C43.1992 10.2363 43.3438 10.252 43.5117 10.2832V11.4609C43.3984 11.4141 43.209 11.3906 42.9434 11.3906C42.5371 11.3906 42.2148 11.5176 41.9766 11.7715C41.7422 12.0254 41.625 12.3711 41.625 12.8086V16.5H40.3594ZM45.6211 12.9785L48.1113 10.3359H49.5996L47.0449 12.9902L49.6992 16.5H48.2285L46.1367 13.7637L45.6094 14.2852V16.5H44.3438V8.04492H45.6094V12.9785H45.6211Z" fill="white"/>
</svg>
