<svg width="57" height="25" viewBox="0 0 57 25" fill="none" xmlns="http://www.w3.org/2000/svg">
<path d="M0 3C0 1.34315 1.34315 0 3 0H54C55.6569 0 57 1.34315 57 3V22C57 23.6569 55.6569 25 54 25H3C1.34314 25 0 23.6569 0 22V3Z" fill="#BAAB82"/>
<path fill-rule="evenodd" clip-rule="evenodd" d="M16.5816 12.1841C16.5808 12.1829 16.5804 12.1815 16.5807 12.18L17.5357 6.61149C17.5361 6.60893 17.5383 6.60706 17.5409 6.60706H17.8432C17.8455 6.60706 17.8475 6.60857 17.8482 6.61079L19.9998 13.423C20.0004 13.4251 19.9997 13.4274 19.9979 13.4288L18.4116 14.6673C18.4092 14.6692 18.4058 14.6687 18.404 14.6663L16.5816 12.1841ZM5 15.8756C5 15.8779 5.00149 15.88 5.00368 15.8807L8.27374 16.9499C8.27532 16.9504 8.27708 16.9502 8.27845 16.9492L15.5878 11.903C15.589 11.9022 15.5899 11.9009 15.5901 11.8994L16.3739 6.64005C16.3744 6.63682 16.3719 6.63392 16.3686 6.63392H9.89435C9.89274 6.63392 9.89125 6.63463 9.89022 6.63585L5.00123 12.5337C5.00043 12.5346 5 12.5358 5 12.5371V15.8756ZM9.63639 17.2223L13.2089 18.3926C13.2105 18.3931 13.2123 18.3929 13.2136 18.3919L17.4669 15.341C17.4693 15.3393 17.4699 15.336 17.4683 15.3336L15.8738 12.961C15.8722 12.9585 15.8688 12.9578 15.8664 12.9595L9.63639 17.2223Z" fill="white"/>
<path d="M27.5137 9.14648V12.1875H29.3535C29.8613 12.1875 30.2539 12.0547 30.5312 11.7891C30.8086 11.5234 30.9473 11.1484 30.9473 10.6641C30.9473 10.1914 30.8027 9.82031 30.5137 9.55078C30.2246 9.28125 29.8262 9.14648 29.3184 9.14648H27.5137ZM27.5137 13.248V16.5H26.2012V8.04492H29.4766C30.3438 8.04492 31.0312 8.2793 31.5391 8.74805C32.0469 9.21289 32.3008 9.83984 32.3008 10.6289C32.3008 11.2031 32.1543 11.707 31.8613 12.1406C31.5723 12.5703 31.1719 12.8711 30.6602 13.043L32.5527 16.5H31.041L29.3184 13.248H27.5137ZM38.1719 15.7617C37.6406 16.332 36.9316 16.6172 36.0449 16.6172C35.1582 16.6172 34.4492 16.332 33.918 15.7617C33.3867 15.1875 33.1211 14.4062 33.1211 13.418C33.1211 12.4336 33.3867 11.6562 33.918 11.0859C34.4492 10.5117 35.1582 10.2246 36.0449 10.2246C36.9316 10.2246 37.6406 10.5117 38.1719 11.0859C38.7031 11.6562 38.9688 12.4336 38.9688 13.418C38.9688 14.4062 38.7031 15.1875 38.1719 15.7617ZM36.0449 15.5742C36.5488 15.5742 36.9473 15.3848 37.2402 15.0059C37.5332 14.627 37.6797 14.0977 37.6797 13.418C37.6797 12.7422 37.5312 12.2148 37.2344 11.8359C36.9414 11.457 36.5449 11.2676 36.0449 11.2676C35.5449 11.2676 35.1465 11.457 34.8496 11.8359C34.5566 12.2148 34.4102 12.7422 34.4102 13.418C34.4102 14.0977 34.5566 14.627 34.8496 15.0059C35.1465 15.3848 35.5449 15.5742 36.0449 15.5742ZM45.2383 12.457H44.0312C43.9648 12.1094 43.8047 11.8262 43.5508 11.6074C43.3008 11.3887 42.9785 11.2793 42.584 11.2793C42.0918 11.2793 41.6973 11.4727 41.4004 11.8594C41.1074 12.2422 40.9609 12.7617 40.9609 13.418C40.9609 14.0859 41.1074 14.6094 41.4004 14.9883C41.6973 15.3672 42.0957 15.5566 42.5957 15.5566C42.9824 15.5566 43.2988 15.457 43.5449 15.2578C43.7949 15.0547 43.957 14.7734 44.0312 14.4141H45.25C45.1836 15.0742 44.9062 15.6074 44.418 16.0137C43.9336 16.416 43.3223 16.6172 42.584 16.6172C41.6973 16.6172 40.9902 16.332 40.4629 15.7617C39.9355 15.1875 39.6719 14.4062 39.6719 13.418C39.6719 12.4414 39.9355 11.666 40.4629 11.0918C40.9902 10.5137 41.6934 10.2246 42.5723 10.2246C43.3379 10.2246 43.959 10.4395 44.4355 10.8691C44.9121 11.2949 45.1797 11.8242 45.2383 12.457ZM47.4707 12.9785L49.9609 10.3359H51.4492L48.8945 12.9902L51.5488 16.5H50.0781L47.9863 13.7637L47.459 14.2852V16.5H46.1934V8.04492H47.459V12.9785H47.4707Z" fill="white"/>
</svg>
