<svg width="69" height="25" viewBox="0 0 69 25" fill="none" xmlns="http://www.w3.org/2000/svg">
<path d="M0 3C0 1.34315 1.34315 0 3 0H66C67.6569 0 69 1.34315 69 3V22C69 23.6569 67.6569 25 66 25H3C1.34315 25 0 23.6569 0 22V3Z" fill="#DD7748"/>
<path fill-rule="evenodd" clip-rule="evenodd" d="M8.30364 17.8952C8.29957 17.8952 8.29673 17.8912 8.29808 17.8873L12.1276 7.06643C12.1285 7.06407 12.1307 7.0625 12.1332 7.0625H16.2214C16.2238 7.0625 16.2261 7.06409 16.2269 7.06645L19.9997 17.8874C20.001 17.8912 19.9981 17.8952 19.9941 17.8952H8.41872H8.30364ZM5.0059 17.9375C5.00178 17.9375 4.99894 17.9334 5.00038 17.9296L7.85214 10.3161C7.853 10.3138 7.8552 10.3123 7.85766 10.3123H10.3355C10.3396 10.3123 10.3425 10.3163 10.341 10.3202L7.58348 17.9336C7.58263 17.936 7.58042 17.9375 7.57794 17.9375H5.0059Z" fill="white"/>
<path d="M33.2148 12.9844C33.2148 14.1289 32.8926 15.0254 32.248 15.6738C31.6074 16.3184 30.7148 16.6406 29.5703 16.6406C28.3594 16.6406 27.3984 16.2461 26.6875 15.457C25.9805 14.6641 25.627 13.5898 25.627 12.2344C25.627 10.9023 25.9785 9.84766 26.6816 9.07031C27.3887 8.29297 28.3457 7.9043 29.5527 7.9043C30.4941 7.9043 31.291 8.16016 31.9434 8.67188C32.5996 9.18359 33.002 9.86133 33.1504 10.7051H31.8027C31.6465 10.1816 31.3711 9.77539 30.9766 9.48633C30.582 9.19727 30.1094 9.05273 29.5586 9.05273C28.75 9.05273 28.1152 9.33398 27.6543 9.89648C27.1973 10.4551 26.9688 11.2305 26.9688 12.2227C26.9688 13.2344 27.2031 14.0332 27.6719 14.6191C28.1406 15.2012 28.7773 15.4922 29.582 15.4922C30.2656 15.4922 30.8242 15.293 31.2578 14.8945C31.6914 14.4922 31.9121 13.9707 31.9199 13.3301V13.1836H29.7344V12.123H33.2148V12.9844ZM34.3457 16.5V10.3359H35.5527V11.3848H35.582C35.6836 11.0254 35.8652 10.7441 36.127 10.541C36.3887 10.3379 36.7012 10.2363 37.0645 10.2363C37.1855 10.2363 37.3301 10.252 37.498 10.2832V11.4609C37.3848 11.4141 37.1953 11.3906 36.9297 11.3906C36.5234 11.3906 36.2012 11.5176 35.9629 11.7715C35.7285 12.0254 35.6113 12.3711 35.6113 12.8086V16.5H34.3457ZM42.7891 15.7617C42.2578 16.332 41.5488 16.6172 40.6621 16.6172C39.7754 16.6172 39.0664 16.332 38.5352 15.7617C38.0039 15.1875 37.7383 14.4062 37.7383 13.418C37.7383 12.4336 38.0039 11.6562 38.5352 11.0859C39.0664 10.5117 39.7754 10.2246 40.6621 10.2246C41.5488 10.2246 42.2578 10.5117 42.7891 11.0859C43.3203 11.6562 43.5859 12.4336 43.5859 13.418C43.5859 14.4062 43.3203 15.1875 42.7891 15.7617ZM40.6621 15.5742C41.166 15.5742 41.5645 15.3848 41.8574 15.0059C42.1504 14.627 42.2969 14.0977 42.2969 13.418C42.2969 12.7422 42.1484 12.2148 41.8516 11.8359C41.5586 11.457 41.1621 11.2676 40.6621 11.2676C40.1621 11.2676 39.7637 11.457 39.4668 11.8359C39.1738 12.2148 39.0273 12.7422 39.0273 13.418C39.0273 14.0977 39.1738 14.627 39.4668 15.0059C39.7637 15.3848 40.1621 15.5742 40.6621 15.5742ZM49.8496 10.3359V16.5H48.6367V15.457H48.6074C48.252 16.2266 47.6152 16.6113 46.6973 16.6113C46.0254 16.6113 45.4961 16.4082 45.1094 16.002C44.7266 15.5918 44.5352 15.0332 44.5352 14.3262V10.3359H45.8008V14.0801C45.8008 14.5527 45.9121 14.9121 46.1348 15.1582C46.3574 15.4004 46.6855 15.5215 47.1191 15.5215C47.5723 15.5215 47.9297 15.377 48.1914 15.0879C48.4531 14.7988 48.584 14.4121 48.584 13.9277V10.3359H49.8496ZM51.1035 16.5V10.3359H52.3105V11.3672H52.3398C52.5117 11.0078 52.7617 10.7285 53.0898 10.5293C53.418 10.3301 53.8145 10.2305 54.2793 10.2305C54.9551 10.2305 55.4805 10.4336 55.8555 10.8398C56.2305 11.2422 56.418 11.7988 56.418 12.5098V16.5H55.1465V12.7559C55.1465 12.2871 55.0352 11.9316 54.8125 11.6895C54.5938 11.4434 54.2676 11.3203 53.834 11.3203C53.3887 11.3203 53.0332 11.4648 52.7676 11.7539C52.502 12.043 52.3691 12.4277 52.3691 12.9082V16.5H51.1035ZM59.957 16.6055C59.1758 16.6055 58.5488 16.3164 58.0762 15.7383C57.6035 15.1602 57.3672 14.3867 57.3672 13.418C57.3672 12.4492 57.6016 11.6777 58.0703 11.1035C58.543 10.5254 59.168 10.2363 59.9453 10.2363C60.3789 10.2363 60.7656 10.3379 61.1055 10.541C61.4453 10.7402 61.7031 11.0137 61.8789 11.3613H61.9023V8.04492H63.1738V16.5H61.9434V15.4512H61.9199C61.7363 15.8105 61.4727 16.0938 61.1289 16.3008C60.7891 16.5039 60.3984 16.6055 59.957 16.6055ZM60.291 11.3027C59.791 11.3027 59.3945 11.4941 59.1016 11.877C58.8086 12.2559 58.6621 12.7695 58.6621 13.418C58.6621 14.0703 58.8086 14.5859 59.1016 14.9648C59.3945 15.3438 59.791 15.5332 60.291 15.5332C60.7793 15.5332 61.1719 15.3418 61.4688 14.959C61.7656 14.5723 61.9141 14.0586 61.9141 13.418C61.9141 12.7812 61.7656 12.2695 61.4688 11.8828C61.1719 11.4961 60.7793 11.3027 60.291 11.3027Z" fill="white"/>
</svg>
