<svg width="55" height="25" viewBox="0 0 55 25" fill="none" xmlns="http://www.w3.org/2000/svg">
<path d="M0 3C0 1.34315 1.34315 0 3 0H52C53.6569 0 55 1.34315 55 3V22C55 23.6569 53.6569 25 52 25H3C1.34315 25 0 23.6569 0 22V3Z" fill="#ED6EC7"/>
<path fill-rule="evenodd" clip-rule="evenodd" d="M8.00965 16.8943L10.4156 16.1966L12.4937 19.9963C12.4965 20.0012 12.5035 20.0012 12.5062 19.9963L14.5843 16.1966L16.9903 16.8943C16.9957 16.8958 17.0007 16.8908 16.9991 16.8854L16.3014 14.527L19.9963 12.5062C20.0012 12.5035 20.0012 12.4965 19.9963 12.4938L16.2709 10.4563L16.9991 7.99497C17.0007 7.98958 16.9957 7.98457 16.9903 7.98612L14.5279 8.70014L12.5062 5.0037C12.5035 4.99877 12.4965 4.99877 12.4938 5.0037L10.4721 8.70014L8.00965 7.98612C8.00426 7.98457 7.99925 7.98958 8.00086 7.99497L8.72906 10.4563L5.0037 12.4938C4.99877 12.4965 4.99877 12.5035 5.0037 12.5062L8.69859 14.527L8.00086 16.8854C7.99925 16.8908 8.00426 16.8958 8.00965 16.8943ZM9.87669 12.5259L11.5812 13.4581L12.5134 15.1626C12.5161 15.1676 12.5232 15.1676 12.5259 15.1626L13.4581 13.4581L15.1626 12.5259C15.1676 12.5232 15.1676 12.5161 15.1626 12.5134L13.4581 11.5812L12.5259 9.87671C12.5232 9.87176 12.5161 9.87176 12.5134 9.87671L11.5812 11.5812L9.87669 12.5134C9.87176 12.5161 9.87176 12.5232 9.87669 12.5259Z" fill="white"/>
<path d="M27.1406 16.5H25.8281V8.04492H31.1074V9.17578H27.1406V11.8535H30.7734V12.9609H27.1406V16.5ZM33.8906 15.6035C34.3359 15.6035 34.709 15.4688 35.0098 15.1992C35.3145 14.9258 35.4668 14.5898 35.4668 14.1914V13.7051L33.9492 13.7988C33.5703 13.8262 33.2773 13.9199 33.0703 14.0801C32.8672 14.2363 32.7656 14.4473 32.7656 14.7129C32.7656 14.9824 32.8672 15.1992 33.0703 15.3633C33.2773 15.5234 33.5508 15.6035 33.8906 15.6035ZM33.5391 16.6055C32.9336 16.6055 32.4395 16.4336 32.0566 16.0898C31.6777 15.7461 31.4883 15.2988 31.4883 14.748C31.4883 14.209 31.6875 13.7812 32.0859 13.4648C32.4844 13.1445 33.0488 12.9648 33.7793 12.9258L35.4668 12.8262V12.3516C35.4668 12.0078 35.3574 11.7402 35.1387 11.5488C34.9199 11.3535 34.6172 11.2559 34.2305 11.2559C33.8711 11.2559 33.5781 11.3359 33.3516 11.4961C33.1289 11.6562 32.9883 11.877 32.9297 12.1582H31.7344C31.7695 11.5879 32.0156 11.123 32.4727 10.7637C32.9297 10.4043 33.5312 10.2246 34.2773 10.2246C35.0234 10.2246 35.6172 10.4082 36.0586 10.7754C36.5039 11.1426 36.7266 11.6348 36.7266 12.252V16.5H35.5137V15.4863H35.4844C35.3086 15.8262 35.041 16.0977 34.6816 16.3008C34.3262 16.5039 33.9453 16.6055 33.5391 16.6055ZM37.998 16.5V10.3359H39.2637V16.5H37.998ZM39.1523 9.22266C39.0078 9.36328 38.834 9.43359 38.6309 9.43359C38.4277 9.43359 38.2539 9.36328 38.1094 9.22266C37.9688 9.08203 37.8984 8.91211 37.8984 8.71289C37.8984 8.50977 37.9688 8.33789 38.1094 8.19727C38.2539 8.05664 38.4277 7.98633 38.6309 7.98633C38.8379 7.98633 39.0117 8.05664 39.1523 8.19727C39.2969 8.33789 39.3691 8.50977 39.3691 8.71289C39.3691 8.91211 39.2969 9.08203 39.1523 9.22266ZM40.5586 16.5V10.3359H41.7656V11.3848H41.7949C41.8965 11.0254 42.0781 10.7441 42.3398 10.541C42.6016 10.3379 42.9141 10.2363 43.2773 10.2363C43.3984 10.2363 43.543 10.252 43.7109 10.2832V11.4609C43.5977 11.4141 43.4082 11.3906 43.1426 11.3906C42.7363 11.3906 42.4141 11.5176 42.1758 11.7715C41.9414 12.0254 41.8242 12.3711 41.8242 12.8086V16.5H40.5586ZM45.1055 18.7969C44.8672 18.7969 44.6953 18.7871 44.5898 18.7676V17.7422C44.6523 17.7578 44.7891 17.7656 45 17.7656C45.2969 17.7656 45.5293 17.6973 45.6973 17.5605C45.8652 17.4277 45.998 17.2031 46.0957 16.8867C46.0957 16.8828 46.1152 16.8184 46.1543 16.6934L46.207 16.5059L43.9805 10.3359H45.3516L46.916 15.3516H46.9336L48.498 10.3359H49.834L47.5195 16.8223C47.2578 17.5684 46.9512 18.084 46.5996 18.3691C46.248 18.6543 45.75 18.7969 45.1055 18.7969Z" fill="white"/>
</svg>
