<svg width="20" height="21" viewBox="0 0 20 21" fill="none" xmlns="http://www.w3.org/2000/svg">
<path d="M1.28349 11.7768H15.6201L9.35668 18.0403C8.85612 18.5408 8.85612 19.3623 9.35668 19.8628C9.47542 19.9818 9.61647 20.0762 9.77173 20.1406C9.927 20.205 10.0935 20.2382 10.2615 20.2382C10.4296 20.2382 10.5961 20.205 10.7514 20.1406C10.9066 20.0762 11.0477 19.9818 11.1664 19.8628L19.6246 11.4046C19.7436 11.2859 19.838 11.1448 19.9024 10.9896C19.9668 10.8343 20 10.6678 20 10.4997C20 10.3317 19.9668 10.1652 19.9024 10.0099C19.838 9.85467 19.7436 9.71362 19.6246 9.59488L11.1664 1.13665C11.0476 1.01782 10.9065 0.923561 10.7513 0.859251C10.596 0.794941 10.4296 0.761841 10.2615 0.761841C10.0935 0.761841 9.9271 0.794942 9.77184 0.859251C9.61658 0.923561 9.47551 1.01782 9.35668 1.13665C9.23785 1.25547 9.14359 1.39655 9.07929 1.5518C9.01498 1.70706 8.98188 1.87346 8.98188 2.04151C8.98188 2.20956 9.01498 2.37596 9.07929 2.53122C9.14359 2.68648 9.23785 2.82755 9.35668 2.94638L15.6201 9.20984H1.28349C0.577572 9.20984 0 9.78741 0 10.4933C0 11.1993 0.577572 11.7768 1.28349 11.7768Z" fill="#747476"/>
</svg>
