<svg width="65" height="65" viewBox="0 0 65 65" fill="none" xmlns="http://www.w3.org/2000/svg">
<path d="M137.5 5C136.119 5 135 3.88071 135 2.5C135 1.11929 136.119 -1.69631e-07 137.5 -1.09278e-07C138.881 -4.89256e-08 140 1.11929 140 2.5C140 3.88071 138.881 5 137.5 5Z" fill="url(#paint0_linear_268_324)"/>
<path d="M137.5 20C136.119 20 135 18.8807 135 17.5C135 16.1193 136.119 15 137.5 15C138.881 15 140 16.1193 140 17.5C140 18.8807 138.881 20 137.5 20Z" fill="url(#paint1_linear_268_324)"/>
<path d="M137.5 35C136.119 35 135 33.8807 135 32.5C135 31.1193 136.119 30 137.5 30C138.881 30 140 31.1193 140 32.5C140 33.8807 138.881 35 137.5 35Z" fill="url(#paint2_linear_268_324)"/>
<path d="M137.5 50C136.119 50 135 48.8807 135 47.5C135 46.1193 136.119 45 137.5 45C138.881 45 140 46.1193 140 47.5C140 48.8807 138.881 50 137.5 50Z" fill="url(#paint3_linear_268_324)"/>
<path d="M137.5 65C136.119 65 135 63.8807 135 62.5C135 61.1193 136.119 60 137.5 60C138.881 60 140 61.1193 140 62.5C140 63.8807 138.881 65 137.5 65Z" fill="url(#paint4_linear_268_324)"/>
<path d="M122.5 5C121.119 5 120 3.88071 120 2.5C120 1.11929 121.119 -8.25302e-07 122.5 -7.64949e-07C123.881 -7.04596e-07 125 1.11929 125 2.5C125 3.88071 123.881 5 122.5 5Z" fill="url(#paint5_linear_268_324)"/>
<path d="M122.5 20C121.119 20 120 18.8807 120 17.5C120 16.1193 121.119 15 122.5 15C123.881 15 125 16.1193 125 17.5C125 18.8807 123.881 20 122.5 20Z" fill="url(#paint6_linear_268_324)"/>
<path d="M122.5 35C121.119 35 120 33.8807 120 32.5C120 31.1193 121.119 30 122.5 30C123.881 30 125 31.1193 125 32.5C125 33.8807 123.881 35 122.5 35Z" fill="url(#paint7_linear_268_324)"/>
<path d="M122.5 50C121.119 50 120 48.8807 120 47.5C120 46.1193 121.119 45 122.5 45C123.881 45 125 46.1193 125 47.5C125 48.8807 123.881 50 122.5 50Z" fill="url(#paint8_linear_268_324)"/>
<path d="M122.5 65C121.119 65 120 63.8807 120 62.5C120 61.1193 121.119 60 122.5 60C123.881 60 125 61.1193 125 62.5C125 63.8807 123.881 65 122.5 65Z" fill="url(#paint9_linear_268_324)"/>
<path d="M107.5 5C106.119 5 105 3.88071 105 2.5C105 1.11929 106.119 -1.48097e-06 107.5 -1.42062e-06C108.881 -1.36027e-06 110 1.11929 110 2.5C110 3.88071 108.881 5 107.5 5Z" fill="url(#paint10_linear_268_324)"/>
<path d="M107.5 20C106.119 20 105 18.8807 105 17.5C105 16.1193 106.119 15 107.5 15C108.881 15 110 16.1193 110 17.5C110 18.8807 108.881 20 107.5 20Z" fill="url(#paint11_linear_268_324)"/>
<path d="M107.5 35C106.119 35 105 33.8807 105 32.5C105 31.1193 106.119 30 107.5 30C108.881 30 110 31.1193 110 32.5C110 33.8807 108.881 35 107.5 35Z" fill="url(#paint12_linear_268_324)"/>
<path d="M107.5 50C106.119 50 105 48.8807 105 47.5C105 46.1193 106.119 45 107.5 45C108.881 45 110 46.1193 110 47.5C110 48.8807 108.881 50 107.5 50Z" fill="url(#paint13_linear_268_324)"/>
<path d="M107.5 65C106.119 65 105 63.8807 105 62.5C105 61.1193 106.119 60 107.5 60C108.881 60 110 61.1193 110 62.5C110 63.8807 108.881 65 107.5 65Z" fill="url(#paint14_linear_268_324)"/>
<path d="M92.5 5C91.1193 5 90 3.88071 90 2.5C90 1.11929 91.1193 -2.13664e-06 92.5 -2.07629e-06C93.8807 -2.01594e-06 95 1.11929 95 2.5C95 3.88071 93.8807 5 92.5 5Z" fill="url(#paint15_linear_268_324)"/>
<path d="M92.5 20C91.1193 20 90 18.8807 90 17.5C90 16.1193 91.1193 15 92.5 15C93.8807 15 95 16.1193 95 17.5C95 18.8807 93.8807 20 92.5 20Z" fill="url(#paint16_linear_268_324)"/>
<path d="M92.5 35C91.1193 35 90 33.8807 90 32.5C90 31.1193 91.1193 30 92.5 30C93.8807 30 95 31.1193 95 32.5C95 33.8807 93.8807 35 92.5 35Z" fill="url(#paint17_linear_268_324)"/>
<path d="M92.5 50C91.1193 50 90 48.8807 90 47.5C90 46.1193 91.1193 45 92.5 45C93.8807 45 95 46.1193 95 47.5C95 48.8807 93.8807 50 92.5 50Z" fill="url(#paint18_linear_268_324)"/>
<path d="M92.5 65C91.1193 65 90 63.8807 90 62.5C90 61.1193 91.1193 60 92.5 60C93.8807 60 95 61.1193 95 62.5C95 63.8807 93.8807 65 92.5 65Z" fill="url(#paint19_linear_268_324)"/>
<path d="M77.5 5C76.1193 5 75 3.88071 75 2.5C75 1.11929 76.1193 -2.79231e-06 77.5 -2.73196e-06C78.8807 -2.67161e-06 80 1.11929 80 2.5C80 3.88071 78.8807 5 77.5 5Z" fill="url(#paint20_linear_268_324)"/>
<path d="M77.5 20C76.1193 20 75 18.8807 75 17.5C75 16.1193 76.1193 15 77.5 15C78.8807 15 80 16.1193 80 17.5C80 18.8807 78.8807 20 77.5 20Z" fill="url(#paint21_linear_268_324)"/>
<path d="M77.5 35C76.1193 35 75 33.8807 75 32.5C75 31.1193 76.1193 30 77.5 30C78.8807 30 80 31.1193 80 32.5C80 33.8807 78.8807 35 77.5 35Z" fill="url(#paint22_linear_268_324)"/>
<path d="M77.5 50C76.1193 50 75 48.8807 75 47.5C75 46.1193 76.1193 45 77.5 45C78.8807 45 80 46.1193 80 47.5C80 48.8807 78.8807 50 77.5 50Z" fill="url(#paint23_linear_268_324)"/>
<path d="M77.5 65C76.1193 65 75 63.8807 75 62.5C75 61.1193 76.1193 60 77.5 60C78.8807 60 80 61.1193 80 62.5C80 63.8807 78.8807 65 77.5 65Z" fill="url(#paint24_linear_268_324)"/>
<path d="M62.5 5C61.1193 5 60 3.88071 60 2.5C60 1.11928 61.1193 -3.44799e-06 62.5 -3.38763e-06C63.8807 -3.32728e-06 65 1.11928 65 2.5C65 3.88071 63.8807 5 62.5 5Z" fill="url(#paint25_linear_268_324)"/>
<path d="M62.5 20C61.1193 20 60 18.8807 60 17.5C60 16.1193 61.1193 15 62.5 15C63.8807 15 65 16.1193 65 17.5C65 18.8807 63.8807 20 62.5 20Z" fill="url(#paint26_linear_268_324)"/>
<path d="M62.5 35C61.1193 35 60 33.8807 60 32.5C60 31.1193 61.1193 30 62.5 30C63.8807 30 65 31.1193 65 32.5C65 33.8807 63.8807 35 62.5 35Z" fill="url(#paint27_linear_268_324)"/>
<path d="M62.5 50C61.1193 50 60 48.8807 60 47.5C60 46.1193 61.1193 45 62.5 45C63.8807 45 65 46.1193 65 47.5C65 48.8807 63.8807 50 62.5 50Z" fill="url(#paint28_linear_268_324)"/>
<path d="M62.5 65C61.1193 65 60 63.8807 60 62.5C60 61.1193 61.1193 60 62.5 60C63.8807 60 65 61.1193 65 62.5C65 63.8807 63.8807 65 62.5 65Z" fill="url(#paint29_linear_268_324)"/>
<path d="M47.5 5C46.1193 5 45 3.88071 45 2.5C45 1.11928 46.1193 -4.10366e-06 47.5 -4.0433e-06C48.8807 -3.98295e-06 50 1.11928 50 2.5C50 3.88071 48.8807 5 47.5 5Z" fill="url(#paint30_linear_268_324)"/>
<path d="M47.5 20C46.1193 20 45 18.8807 45 17.5C45 16.1193 46.1193 15 47.5 15C48.8807 15 50 16.1193 50 17.5C50 18.8807 48.8807 20 47.5 20Z" fill="url(#paint31_linear_268_324)"/>
<path d="M47.5 35C46.1193 35 45 33.8807 45 32.5C45 31.1193 46.1193 30 47.5 30C48.8807 30 50 31.1193 50 32.5C50 33.8807 48.8807 35 47.5 35Z" fill="url(#paint32_linear_268_324)"/>
<path d="M47.5 50C46.1193 50 45 48.8807 45 47.5C45 46.1193 46.1193 45 47.5 45C48.8807 45 50 46.1193 50 47.5C50 48.8807 48.8807 50 47.5 50Z" fill="url(#paint33_linear_268_324)"/>
<path d="M47.5 65C46.1193 65 45 63.8807 45 62.5C45 61.1193 46.1193 60 47.5 60C48.8807 60 50 61.1193 50 62.5C50 63.8807 48.8807 65 47.5 65Z" fill="url(#paint34_linear_268_324)"/>
<path d="M32.5 5C31.1193 5 30 3.88071 30 2.5C30 1.11928 31.1193 -4.75933e-06 32.5 -4.69897e-06C33.8807 -4.63862e-06 35 1.11928 35 2.5C35 3.88071 33.8807 5 32.5 5Z" fill="url(#paint35_linear_268_324)"/>
<path d="M32.5 20C31.1193 20 30 18.8807 30 17.5C30 16.1193 31.1193 15 32.5 15C33.8807 15 35 16.1193 35 17.5C35 18.8807 33.8807 20 32.5 20Z" fill="url(#paint36_linear_268_324)"/>
<path d="M32.5 35C31.1193 35 30 33.8807 30 32.5C30 31.1193 31.1193 30 32.5 30C33.8807 30 35 31.1193 35 32.5C35 33.8807 33.8807 35 32.5 35Z" fill="url(#paint37_linear_268_324)"/>
<path d="M32.5 50C31.1193 50 30 48.8807 30 47.5C30 46.1193 31.1193 45 32.5 45C33.8807 45 35 46.1193 35 47.5C35 48.8807 33.8807 50 32.5 50Z" fill="url(#paint38_linear_268_324)"/>
<path d="M32.5 65C31.1193 65 30 63.8807 30 62.5C30 61.1193 31.1193 60 32.5 60C33.8807 60 35 61.1193 35 62.5C35 63.8807 33.8807 65 32.5 65Z" fill="url(#paint39_linear_268_324)"/>
<path d="M17.5 4.99999C16.1193 4.99999 15 3.88071 15 2.49999C15 1.11928 16.1193 -5.415e-06 17.5 -5.35465e-06C18.8807 -5.29429e-06 20 1.11928 20 2.49999C20 3.88071 18.8807 4.99999 17.5 4.99999Z" fill="url(#paint40_linear_268_324)"/>
<path d="M17.5 20C16.1193 20 15 18.8807 15 17.5C15 16.1193 16.1193 15 17.5 15C18.8807 15 20 16.1193 20 17.5C20 18.8807 18.8807 20 17.5 20Z" fill="url(#paint41_linear_268_324)"/>
<path d="M17.5 35C16.1193 35 15 33.8807 15 32.5C15 31.1193 16.1193 30 17.5 30C18.8807 30 20 31.1193 20 32.5C20 33.8807 18.8807 35 17.5 35Z" fill="url(#paint42_linear_268_324)"/>
<path d="M17.5 50C16.1193 50 15 48.8807 15 47.5C15 46.1193 16.1193 45 17.5 45C18.8807 45 20 46.1193 20 47.5C20 48.8807 18.8807 50 17.5 50Z" fill="url(#paint43_linear_268_324)"/>
<path d="M17.5 65C16.1193 65 15 63.8807 15 62.5C15 61.1193 16.1193 60 17.5 60C18.8807 60 20 61.1193 20 62.5C20 63.8807 18.8807 65 17.5 65Z" fill="url(#paint44_linear_268_324)"/>
<path d="M2.5 4.99999C1.11929 4.99999 -1.69631e-07 3.88071 -1.09278e-07 2.49999C-4.89256e-08 1.11928 1.11929 -6.07067e-06 2.5 -6.01032e-06C3.88071 -5.94996e-06 5 1.11928 5 2.49999C5 3.88071 3.88071 4.99999 2.5 4.99999Z" fill="url(#paint45_linear_268_324)"/>
<path d="M2.5 20C1.11929 20 -8.25302e-07 18.8807 -7.64949e-07 17.5C-7.04596e-07 16.1193 1.11929 15 2.5 15C3.88071 15 5 16.1193 5 17.5C5 18.8807 3.88071 20 2.5 20Z" fill="url(#paint46_linear_268_324)"/>
<path d="M2.5 35C1.11929 35 -1.48097e-06 33.8807 -1.42062e-06 32.5C-1.36027e-06 31.1193 1.11929 30 2.5 30C3.88071 30 5 31.1193 5 32.5C5 33.8807 3.88071 35 2.5 35Z" fill="url(#paint47_linear_268_324)"/>
<path d="M2.5 50C1.11929 50 -2.13664e-06 48.8807 -2.07629e-06 47.5C-2.01594e-06 46.1193 1.11929 45 2.5 45C3.8807 45 5 46.1193 5 47.5C5 48.8807 3.8807 50 2.5 50Z" fill="url(#paint48_linear_268_324)"/>
<path d="M2.5 65C1.11929 65 -2.79231e-06 63.8807 -2.73196e-06 62.5C-2.67161e-06 61.1193 1.11929 60 2.5 60C3.8807 60 5 61.1193 5 62.5C5 63.8807 3.8807 65 2.5 65Z" fill="url(#paint49_linear_268_324)"/>
<defs>
<linearGradient id="paint0_linear_268_324" x1="140" y1="0" x2="133.172" y2="76.8346" gradientUnits="userSpaceOnUse">
<stop stop-color="white" stop-opacity="0.3"/>
<stop offset="1" stop-color="white" stop-opacity="0"/>
</linearGradient>
<linearGradient id="paint1_linear_268_324" x1="140" y1="0" x2="133.172" y2="76.8346" gradientUnits="userSpaceOnUse">
<stop stop-color="white" stop-opacity="0.3"/>
<stop offset="1" stop-color="white" stop-opacity="0"/>
</linearGradient>
<linearGradient id="paint2_linear_268_324" x1="140" y1="0" x2="133.172" y2="76.8346" gradientUnits="userSpaceOnUse">
<stop stop-color="white" stop-opacity="0.3"/>
<stop offset="1" stop-color="white" stop-opacity="0"/>
</linearGradient>
<linearGradient id="paint3_linear_268_324" x1="140" y1="0" x2="133.172" y2="76.8346" gradientUnits="userSpaceOnUse">
<stop stop-color="white" stop-opacity="0.3"/>
<stop offset="1" stop-color="white" stop-opacity="0"/>
</linearGradient>
<linearGradient id="paint4_linear_268_324" x1="140" y1="0" x2="133.172" y2="76.8346" gradientUnits="userSpaceOnUse">
<stop stop-color="white" stop-opacity="0.3"/>
<stop offset="1" stop-color="white" stop-opacity="0"/>
</linearGradient>
<linearGradient id="paint5_linear_268_324" x1="140" y1="0" x2="133.172" y2="76.8346" gradientUnits="userSpaceOnUse">
<stop stop-color="white" stop-opacity="0.3"/>
<stop offset="1" stop-color="white" stop-opacity="0"/>
</linearGradient>
<linearGradient id="paint6_linear_268_324" x1="140" y1="0" x2="133.172" y2="76.8346" gradientUnits="userSpaceOnUse">
<stop stop-color="white" stop-opacity="0.3"/>
<stop offset="1" stop-color="white" stop-opacity="0"/>
</linearGradient>
<linearGradient id="paint7_linear_268_324" x1="140" y1="0" x2="133.172" y2="76.8346" gradientUnits="userSpaceOnUse">
<stop stop-color="white" stop-opacity="0.3"/>
<stop offset="1" stop-color="white" stop-opacity="0"/>
</linearGradient>
<linearGradient id="paint8_linear_268_324" x1="140" y1="0" x2="133.172" y2="76.8346" gradientUnits="userSpaceOnUse">
<stop stop-color="white" stop-opacity="0.3"/>
<stop offset="1" stop-color="white" stop-opacity="0"/>
</linearGradient>
<linearGradient id="paint9_linear_268_324" x1="140" y1="0" x2="133.172" y2="76.8346" gradientUnits="userSpaceOnUse">
<stop stop-color="white" stop-opacity="0.3"/>
<stop offset="1" stop-color="white" stop-opacity="0"/>
</linearGradient>
<linearGradient id="paint10_linear_268_324" x1="140" y1="0" x2="133.172" y2="76.8346" gradientUnits="userSpaceOnUse">
<stop stop-color="white" stop-opacity="0.3"/>
<stop offset="1" stop-color="white" stop-opacity="0"/>
</linearGradient>
<linearGradient id="paint11_linear_268_324" x1="140" y1="0" x2="133.172" y2="76.8346" gradientUnits="userSpaceOnUse">
<stop stop-color="white" stop-opacity="0.3"/>
<stop offset="1" stop-color="white" stop-opacity="0"/>
</linearGradient>
<linearGradient id="paint12_linear_268_324" x1="140" y1="0" x2="133.172" y2="76.8346" gradientUnits="userSpaceOnUse">
<stop stop-color="white" stop-opacity="0.3"/>
<stop offset="1" stop-color="white" stop-opacity="0"/>
</linearGradient>
<linearGradient id="paint13_linear_268_324" x1="140" y1="0" x2="133.172" y2="76.8346" gradientUnits="userSpaceOnUse">
<stop stop-color="white" stop-opacity="0.3"/>
<stop offset="1" stop-color="white" stop-opacity="0"/>
</linearGradient>
<linearGradient id="paint14_linear_268_324" x1="140" y1="0" x2="133.172" y2="76.8346" gradientUnits="userSpaceOnUse">
<stop stop-color="white" stop-opacity="0.3"/>
<stop offset="1" stop-color="white" stop-opacity="0"/>
</linearGradient>
<linearGradient id="paint15_linear_268_324" x1="140" y1="0" x2="133.172" y2="76.8346" gradientUnits="userSpaceOnUse">
<stop stop-color="white" stop-opacity="0.3"/>
<stop offset="1" stop-color="white" stop-opacity="0"/>
</linearGradient>
<linearGradient id="paint16_linear_268_324" x1="140" y1="0" x2="133.172" y2="76.8346" gradientUnits="userSpaceOnUse">
<stop stop-color="white" stop-opacity="0.3"/>
<stop offset="1" stop-color="white" stop-opacity="0"/>
</linearGradient>
<linearGradient id="paint17_linear_268_324" x1="140" y1="0" x2="133.172" y2="76.8346" gradientUnits="userSpaceOnUse">
<stop stop-color="white" stop-opacity="0.3"/>
<stop offset="1" stop-color="white" stop-opacity="0"/>
</linearGradient>
<linearGradient id="paint18_linear_268_324" x1="140" y1="0" x2="133.172" y2="76.8346" gradientUnits="userSpaceOnUse">
<stop stop-color="white" stop-opacity="0.3"/>
<stop offset="1" stop-color="white" stop-opacity="0"/>
</linearGradient>
<linearGradient id="paint19_linear_268_324" x1="140" y1="0" x2="133.172" y2="76.8346" gradientUnits="userSpaceOnUse">
<stop stop-color="white" stop-opacity="0.3"/>
<stop offset="1" stop-color="white" stop-opacity="0"/>
</linearGradient>
<linearGradient id="paint20_linear_268_324" x1="140" y1="0" x2="133.172" y2="76.8346" gradientUnits="userSpaceOnUse">
<stop stop-color="white" stop-opacity="0.3"/>
<stop offset="1" stop-color="white" stop-opacity="0"/>
</linearGradient>
<linearGradient id="paint21_linear_268_324" x1="140" y1="0" x2="133.172" y2="76.8346" gradientUnits="userSpaceOnUse">
<stop stop-color="white" stop-opacity="0.3"/>
<stop offset="1" stop-color="white" stop-opacity="0"/>
</linearGradient>
<linearGradient id="paint22_linear_268_324" x1="140" y1="0" x2="133.172" y2="76.8346" gradientUnits="userSpaceOnUse">
<stop stop-color="white" stop-opacity="0.3"/>
<stop offset="1" stop-color="white" stop-opacity="0"/>
</linearGradient>
<linearGradient id="paint23_linear_268_324" x1="140" y1="0" x2="133.172" y2="76.8346" gradientUnits="userSpaceOnUse">
<stop stop-color="white" stop-opacity="0.3"/>
<stop offset="1" stop-color="white" stop-opacity="0"/>
</linearGradient>
<linearGradient id="paint24_linear_268_324" x1="140" y1="0" x2="133.172" y2="76.8346" gradientUnits="userSpaceOnUse">
<stop stop-color="white" stop-opacity="0.3"/>
<stop offset="1" stop-color="white" stop-opacity="0"/>
</linearGradient>
<linearGradient id="paint25_linear_268_324" x1="140" y1="0" x2="133.172" y2="76.8346" gradientUnits="userSpaceOnUse">
<stop stop-color="white" stop-opacity="0.3"/>
<stop offset="1" stop-color="white" stop-opacity="0"/>
</linearGradient>
<linearGradient id="paint26_linear_268_324" x1="140" y1="0" x2="133.172" y2="76.8346" gradientUnits="userSpaceOnUse">
<stop stop-color="white" stop-opacity="0.3"/>
<stop offset="1" stop-color="white" stop-opacity="0"/>
</linearGradient>
<linearGradient id="paint27_linear_268_324" x1="140" y1="0" x2="133.172" y2="76.8346" gradientUnits="userSpaceOnUse">
<stop stop-color="white" stop-opacity="0.3"/>
<stop offset="1" stop-color="white" stop-opacity="0"/>
</linearGradient>
<linearGradient id="paint28_linear_268_324" x1="140" y1="0" x2="133.172" y2="76.8346" gradientUnits="userSpaceOnUse">
<stop stop-color="white" stop-opacity="0.3"/>
<stop offset="1" stop-color="white" stop-opacity="0"/>
</linearGradient>
<linearGradient id="paint29_linear_268_324" x1="140" y1="0" x2="133.172" y2="76.8346" gradientUnits="userSpaceOnUse">
<stop stop-color="white" stop-opacity="0.3"/>
<stop offset="1" stop-color="white" stop-opacity="0"/>
</linearGradient>
<linearGradient id="paint30_linear_268_324" x1="140" y1="0" x2="133.172" y2="76.8346" gradientUnits="userSpaceOnUse">
<stop stop-color="white" stop-opacity="0.3"/>
<stop offset="1" stop-color="white" stop-opacity="0"/>
</linearGradient>
<linearGradient id="paint31_linear_268_324" x1="140" y1="0" x2="133.172" y2="76.8346" gradientUnits="userSpaceOnUse">
<stop stop-color="white" stop-opacity="0.3"/>
<stop offset="1" stop-color="white" stop-opacity="0"/>
</linearGradient>
<linearGradient id="paint32_linear_268_324" x1="140" y1="0" x2="133.172" y2="76.8346" gradientUnits="userSpaceOnUse">
<stop stop-color="white" stop-opacity="0.3"/>
<stop offset="1" stop-color="white" stop-opacity="0"/>
</linearGradient>
<linearGradient id="paint33_linear_268_324" x1="140" y1="0" x2="133.172" y2="76.8346" gradientUnits="userSpaceOnUse">
<stop stop-color="white" stop-opacity="0.3"/>
<stop offset="1" stop-color="white" stop-opacity="0"/>
</linearGradient>
<linearGradient id="paint34_linear_268_324" x1="140" y1="0" x2="133.172" y2="76.8346" gradientUnits="userSpaceOnUse">
<stop stop-color="white" stop-opacity="0.3"/>
<stop offset="1" stop-color="white" stop-opacity="0"/>
</linearGradient>
<linearGradient id="paint35_linear_268_324" x1="140" y1="0" x2="133.172" y2="76.8346" gradientUnits="userSpaceOnUse">
<stop stop-color="white" stop-opacity="0.3"/>
<stop offset="1" stop-color="white" stop-opacity="0"/>
</linearGradient>
<linearGradient id="paint36_linear_268_324" x1="140" y1="0" x2="133.172" y2="76.8346" gradientUnits="userSpaceOnUse">
<stop stop-color="white" stop-opacity="0.3"/>
<stop offset="1" stop-color="white" stop-opacity="0"/>
</linearGradient>
<linearGradient id="paint37_linear_268_324" x1="140" y1="0" x2="133.172" y2="76.8346" gradientUnits="userSpaceOnUse">
<stop stop-color="white" stop-opacity="0.3"/>
<stop offset="1" stop-color="white" stop-opacity="0"/>
</linearGradient>
<linearGradient id="paint38_linear_268_324" x1="140" y1="0" x2="133.172" y2="76.8346" gradientUnits="userSpaceOnUse">
<stop stop-color="white" stop-opacity="0.3"/>
<stop offset="1" stop-color="white" stop-opacity="0"/>
</linearGradient>
<linearGradient id="paint39_linear_268_324" x1="140" y1="0" x2="133.172" y2="76.8346" gradientUnits="userSpaceOnUse">
<stop stop-color="white" stop-opacity="0.3"/>
<stop offset="1" stop-color="white" stop-opacity="0"/>
</linearGradient>
<linearGradient id="paint40_linear_268_324" x1="140" y1="0" x2="133.172" y2="76.8346" gradientUnits="userSpaceOnUse">
<stop stop-color="white" stop-opacity="0.3"/>
<stop offset="1" stop-color="white" stop-opacity="0"/>
</linearGradient>
<linearGradient id="paint41_linear_268_324" x1="140" y1="0" x2="133.172" y2="76.8346" gradientUnits="userSpaceOnUse">
<stop stop-color="white" stop-opacity="0.3"/>
<stop offset="1" stop-color="white" stop-opacity="0"/>
</linearGradient>
<linearGradient id="paint42_linear_268_324" x1="140" y1="0" x2="133.172" y2="76.8346" gradientUnits="userSpaceOnUse">
<stop stop-color="white" stop-opacity="0.3"/>
<stop offset="1" stop-color="white" stop-opacity="0"/>
</linearGradient>
<linearGradient id="paint43_linear_268_324" x1="140" y1="0" x2="133.172" y2="76.8346" gradientUnits="userSpaceOnUse">
<stop stop-color="white" stop-opacity="0.3"/>
<stop offset="1" stop-color="white" stop-opacity="0"/>
</linearGradient>
<linearGradient id="paint44_linear_268_324" x1="140" y1="0" x2="133.172" y2="76.8346" gradientUnits="userSpaceOnUse">
<stop stop-color="white" stop-opacity="0.3"/>
<stop offset="1" stop-color="white" stop-opacity="0"/>
</linearGradient>
<linearGradient id="paint45_linear_268_324" x1="140" y1="0" x2="133.172" y2="76.8346" gradientUnits="userSpaceOnUse">
<stop stop-color="white" stop-opacity="0.3"/>
<stop offset="1" stop-color="white" stop-opacity="0"/>
</linearGradient>
<linearGradient id="paint46_linear_268_324" x1="140" y1="0" x2="133.172" y2="76.8346" gradientUnits="userSpaceOnUse">
<stop stop-color="white" stop-opacity="0.3"/>
<stop offset="1" stop-color="white" stop-opacity="0"/>
</linearGradient>
<linearGradient id="paint47_linear_268_324" x1="140" y1="0" x2="133.172" y2="76.8346" gradientUnits="userSpaceOnUse">
<stop stop-color="white" stop-opacity="0.3"/>
<stop offset="1" stop-color="white" stop-opacity="0"/>
</linearGradient>
<linearGradient id="paint48_linear_268_324" x1="140" y1="0" x2="133.172" y2="76.8346" gradientUnits="userSpaceOnUse">
<stop stop-color="white" stop-opacity="0.3"/>
<stop offset="1" stop-color="white" stop-opacity="0"/>
</linearGradient>
<linearGradient id="paint49_linear_268_324" x1="140" y1="0" x2="133.172" y2="76.8346" gradientUnits="userSpaceOnUse">
<stop stop-color="white" stop-opacity="0.3"/>
<stop offset="1" stop-color="white" stop-opacity="0"/>
</linearGradient>
</defs>
</svg>
