<svg width="26" height="25" viewBox="0 0 26 25" fill="none" xmlns="http://www.w3.org/2000/svg">
<path d="M0.479996 3C0.479996 1.34315 1.82314 0 3.48 0H22.48C24.1369 0 25.48 1.34315 25.48 3V22C25.48 23.6569 24.1369 25 22.48 25H3.48C1.82314 25 0.479996 23.6569 0.479996 22V3Z" fill="#556AAE"/>
<g clip-path="url(#clip0_268_2216)">
<path fill-rule="evenodd" clip-rule="evenodd" d="M16.2891 19.9481C14.9361 20.0173 13.3871 20.0173 12.8607 19.9481C8.75451 19.4079 5.48 16.4057 5.48 12.3477C5.48 8.28966 8.83786 5 12.98 5C17.1221 5 20.48 8.28966 20.48 12.3477C20.48 14.235 19.7536 15.9561 18.5599 17.2574C18.2357 17.6108 18.6805 17.8586 19.1324 18.1105C19.5756 18.3575 20.0257 18.6083 19.7641 18.9662C19.4759 19.3605 17.9134 19.8649 16.2891 19.9481ZM11.9253 11.4292C11.9253 12.0632 11.4006 12.5773 10.7534 12.5773C10.1062 12.5773 9.58156 12.0632 9.58156 11.4292C9.58156 11.004 9.81754 10.6327 10.1682 10.4343C10.1884 10.9872 10.643 11.4292 11.2008 11.4292H11.9253V11.4292ZM15.5574 10.4343C15.5372 10.9872 15.0827 11.4292 14.5248 11.4292H13.8003V11.4292C13.8003 12.0632 14.325 12.5773 14.9722 12.5773C15.6194 12.5773 16.1441 12.0632 16.1441 11.4292C16.1441 11.004 15.9081 10.6327 15.5574 10.4343Z" fill="white"/>
</g>
<defs>
<clipPath id="clip0_268_2216">
<rect width="15" height="15" fill="white" transform="translate(5.48 5)"/>
</clipPath>
</defs>
</svg>
