<svg width="26" height="25" viewBox="0 0 26 25" fill="none" xmlns="http://www.w3.org/2000/svg">
<path d="M0.479996 3C0.479996 1.34315 1.82314 0 3.48 0H22.48C24.1369 0 25.48 1.34315 25.48 3V22C25.48 23.6569 24.1369 25 22.48 25H3.48C1.82314 25 0.479996 23.6569 0.479996 22V3Z" fill="#62B957"/>
<path fill-rule="evenodd" clip-rule="evenodd" d="M8.26954 18.0851C8.21609 18.0348 8.16322 17.9835 8.11097 17.9313C5.35272 15.1731 5.35272 10.701 8.11097 7.94279C10.8692 5.18452 19.6581 5 19.6581 5C19.6581 5 20.8578 15.1731 18.0995 17.9313C15.6498 20.381 11.8484 20.655 9.09624 18.7535L11.3138 16.0321L14.8588 15.2668L11.965 14.9775L13.8041 13.105L15.8974 12.6464L14.2421 12.1562L15.8974 9.1701L13.5429 11.8111L12.6337 10.528L12.9537 12.6464L11.3138 14.4952L10.5536 12.1562V15.2668L8.26954 18.0851Z" fill="white"/>
</svg>
