<svg width="26" height="25" viewBox="0 0 26 25" fill="none" xmlns="http://www.w3.org/2000/svg">
<path d="M0.860001 3C0.860001 1.34315 2.20315 0 3.86 0H22.86C24.5169 0 25.86 1.34315 25.86 3V22C25.86 23.6569 24.5169 25 22.86 25H3.86C2.20315 25 0.860001 23.6569 0.860001 22V3Z" fill="#BAAB82"/>
<g clip-path="url(#clip0_268_2213)">
<path fill-rule="evenodd" clip-rule="evenodd" d="M17.4416 12.1841C17.4408 12.1829 17.4404 12.1815 17.4407 12.18L18.3957 6.61149C18.3961 6.60893 18.3983 6.60706 18.4009 6.60706H18.7032C18.7055 6.60706 18.7075 6.60857 18.7082 6.61079L20.8598 13.423C20.8604 13.4251 20.8597 13.4274 20.8579 13.4288L19.2716 14.6673C19.2692 14.6692 19.2658 14.6687 19.264 14.6663L17.4416 12.1841ZM5.86 15.8756C5.86 15.8779 5.86149 15.88 5.86368 15.8807L9.13374 16.9499C9.13532 16.9504 9.13708 16.9502 9.13845 16.9492L16.4478 11.903C16.449 11.9022 16.4499 11.9009 16.4501 11.8994L17.2339 6.64005C17.2344 6.63682 17.2319 6.63392 17.2286 6.63392H10.7543C10.7527 6.63392 10.7512 6.63463 10.7502 6.63585L5.86123 12.5337C5.86044 12.5346 5.86 12.5358 5.86 12.5371V15.8756ZM10.4964 17.2223L14.0689 18.3926C14.0705 18.3931 14.0723 18.3929 14.0736 18.3919L18.3269 15.341C18.3293 15.3393 18.3299 15.336 18.3283 15.3336L16.7338 12.961C16.7322 12.9585 16.7288 12.9578 16.7264 12.9595L10.4964 17.2223Z" fill="white"/>
</g>
<defs>
<clipPath id="clip0_268_2213">
<rect width="15" height="15" fill="white" transform="translate(5.86 5)"/>
</clipPath>
</defs>
</svg>
