<svg width="25" height="25" viewBox="0 0 25 25" fill="none" xmlns="http://www.w3.org/2000/svg">
<path d="M0 3C0 1.34315 1.34315 0 3 0H22C23.6569 0 25 1.34315 25 3V22C25 23.6569 23.6569 25 22 25H3C1.34315 25 0 23.6569 0 22V3Z" fill="#9DA0AA"/>
<path fill-rule="evenodd" clip-rule="evenodd" d="M20 12.5C20 16.6421 16.6421 20 12.5 20C8.35787 20 5 16.6421 5 12.5C5 8.35787 8.35787 5 12.5 5C16.6421 5 20 8.35787 20 12.5ZM16.7857 12.5C16.7857 14.8669 14.8669 16.7857 12.5 16.7857C10.1331 16.7857 8.2143 14.8669 8.2143 12.5C8.2143 10.1331 10.1331 8.2143 12.5 8.2143C14.8669 8.2143 16.7857 10.1331 16.7857 12.5Z" fill="white"/>
</svg>
