<svg width="26" height="25" viewBox="0 0 26 25" fill="none" xmlns="http://www.w3.org/2000/svg">
<path d="M0.959961 3C0.959961 1.34315 2.30311 0 3.95996 0H22.96C24.6168 0 25.96 1.34315 25.96 3V22C25.96 23.6569 24.6168 25 22.96 25H3.95996C2.30311 25 0.959961 23.6569 0.959961 22V3Z" fill="#DD7748"/>
<g clip-path="url(#clip0_268_2200)">
<path fill-rule="evenodd" clip-rule="evenodd" d="M9.26361 17.8952C9.25953 17.8952 9.25669 17.8912 9.25804 17.8873L13.0876 7.06643C13.0884 7.06407 13.0907 7.0625 13.0932 7.0625H17.1813C17.1838 7.0625 17.1861 7.06409 17.1869 7.06645L20.9596 17.8874C20.961 17.8912 20.9581 17.8952 20.9541 17.8952H9.37868H9.26361ZM5.96586 17.9375C5.96175 17.9375 5.9589 17.9334 5.96034 17.9296L8.8121 10.3161C8.81296 10.3138 8.81516 10.3123 8.81762 10.3123H11.2955C11.2996 10.3123 11.3024 10.3163 11.301 10.3202L8.54344 17.9336C8.54259 17.936 8.54038 17.9375 8.5379 17.9375H5.96586Z" fill="white"/>
</g>
<defs>
<clipPath id="clip0_268_2200">
<rect width="15" height="15" fill="white" transform="translate(5.95996 5)"/>
</clipPath>
</defs>
</svg>
