<svg width="26" height="25" viewBox="0 0 26 25" fill="none" xmlns="http://www.w3.org/2000/svg">
<path d="M0.339966 3C0.339966 1.34315 1.68311 0 3.33997 0H22.34C23.9968 0 25.34 1.34315 25.34 3V22C25.34 23.6569 23.9968 25 22.34 25H3.33997C1.68311 25 0.339966 23.6569 0.339966 22V3Z" fill="#417D9A"/>
<g clip-path="url(#clip0_268_2225)">
<path fill-rule="evenodd" clip-rule="evenodd" d="M5.34146 12.5091C5.33947 12.5057 5.33947 12.5015 5.34146 12.4981L9.11326 6.05374C9.11523 6.0504 9.11883 6.04834 9.1227 6.04834H16.5986C16.6025 6.04834 16.6061 6.05041 16.6081 6.05379L20.3385 12.4981C20.3405 12.5015 20.3405 12.5057 20.3385 12.509L16.6081 18.9461C16.6061 18.9495 16.6025 18.9516 16.5986 18.9516H9.1227C9.11883 18.9516 9.11523 18.9495 9.11326 18.9462L5.34146 12.5091ZM16.3151 12.5C16.3151 14.4186 14.7597 15.9739 12.8411 15.9739C10.9226 15.9739 9.36721 14.4186 9.36721 12.5C9.36721 10.5813 10.9226 9.02602 12.8411 9.02602C14.7597 9.02602 16.3151 10.5813 16.3151 12.5Z" fill="white"/>
</g>
<defs>
<clipPath id="clip0_268_2225">
<rect width="15" height="15" fill="white" transform="translate(5.33997 5)"/>
</clipPath>
</defs>
</svg>
