<svg width="26" height="25" viewBox="0 0 26 25" fill="none" xmlns="http://www.w3.org/2000/svg">
<path d="M0.239998 3C0.239998 1.34315 1.58314 0 3.24 0H22.24C23.8969 0 25.24 1.34315 25.24 3V22C25.24 23.6569 23.8969 25 22.24 25H3.24C1.58314 25 0.239998 23.6569 0.239998 22V3Z" fill="#4A90DA"/>
<path fill-rule="evenodd" clip-rule="evenodd" d="M17.606 15.1523C17.606 17.8296 15.4274 20 12.74 20C10.0526 20 7.87398 17.8296 7.87398 15.1523C7.87398 12.5484 12.4768 5.39693 12.7292 5.00667C12.735 4.99778 12.745 4.99778 12.7508 5.00667C13.0032 5.39693 17.606 12.5484 17.606 15.1523ZM11.9288 18.4458C9.4596 17.9056 9.88214 15.1703 9.88214 15.1703C9.88214 15.1703 10.5564 16.8215 12.1927 17.3563C13.8289 17.8912 15.8063 17.1067 15.8063 17.1067C15.8063 17.1067 14.3981 18.9861 11.9288 18.4458Z" fill="white"/>
</svg>
