<svg width="65" height="25" viewBox="0 0 65 25" fill="none" xmlns="http://www.w3.org/2000/svg">
<path d="M0 3C0 1.34315 1.34315 0 3 0H62C63.6569 0 65 1.34315 65 3V22C65 23.6569 63.6569 25 62 25H3C1.34315 25 0 23.6569 0 22V3Z" fill="#A552CC"/>
<path fill-rule="evenodd" clip-rule="evenodd" d="M17.5338 16.5268C19.0486 15.3157 20 13.5657 20 11.6196C20 7.9637 16.6421 5 12.5 5C8.35786 5 5 7.9637 5 11.6196C5 13.4954 5.88399 15.189 7.30435 16.3936C7.21827 16.6908 7.17105 17.0141 7.17105 17.3521C7.17105 18.8145 8.0547 20 9.14475 20C9.85303 20 10.4742 19.4995 10.8224 18.7477C11.1706 19.4995 11.7917 20 12.5 20C13.1456 20 13.7189 19.5841 14.079 18.9411C14.439 19.5841 15.0123 20 15.6579 20C16.7479 20 17.6316 18.8145 17.6316 17.3521C17.6316 17.064 17.5972 16.7865 17.5338 16.5268ZM16.8421 11.7509C16.8421 13.607 14.8539 15.1116 12.4013 15.1116C9.94874 15.1116 7.96054 13.607 7.96054 11.7509C7.96054 9.89483 9.94874 8.39018 12.4013 8.39018C14.8539 8.39018 16.8421 9.89483 16.8421 11.7509Z" fill="white"/>
<path d="M25.8418 8.04492H29.0117C29.832 8.04492 30.5 8.30273 31.0156 8.81836C31.5352 9.33398 31.7949 10.002 31.7949 10.8223C31.7949 11.6465 31.5312 12.3184 31.0039 12.8379C30.4805 13.3535 29.8027 13.6113 28.9707 13.6113H27.1543V16.5H25.8418V8.04492ZM27.1543 9.15234V12.5098H28.6602C29.2305 12.5098 29.6719 12.3633 29.9844 12.0703C30.2969 11.7773 30.4531 11.3633 30.4531 10.8281C30.4531 10.2969 30.2969 9.88477 29.9844 9.5918C29.6758 9.29883 29.2363 9.15234 28.666 9.15234H27.1543ZM37.2969 15.7617C36.7656 16.332 36.0566 16.6172 35.1699 16.6172C34.2832 16.6172 33.5742 16.332 33.043 15.7617C32.5117 15.1875 32.2461 14.4062 32.2461 13.418C32.2461 12.4336 32.5117 11.6562 33.043 11.0859C33.5742 10.5117 34.2832 10.2246 35.1699 10.2246C36.0566 10.2246 36.7656 10.5117 37.2969 11.0859C37.8281 11.6562 38.0938 12.4336 38.0938 13.418C38.0938 14.4062 37.8281 15.1875 37.2969 15.7617ZM35.1699 15.5742C35.6738 15.5742 36.0723 15.3848 36.3652 15.0059C36.6582 14.627 36.8047 14.0977 36.8047 13.418C36.8047 12.7422 36.6562 12.2148 36.3594 11.8359C36.0664 11.457 35.6699 11.2676 35.1699 11.2676C34.6699 11.2676 34.2715 11.457 33.9746 11.8359C33.6816 12.2148 33.5352 12.7422 33.5352 13.418C33.5352 14.0977 33.6816 14.627 33.9746 15.0059C34.2715 15.3848 34.6699 15.5742 35.1699 15.5742ZM39.1133 16.5V10.3359H40.3789V16.5H39.1133ZM40.2676 9.22266C40.123 9.36328 39.9492 9.43359 39.7461 9.43359C39.543 9.43359 39.3691 9.36328 39.2246 9.22266C39.084 9.08203 39.0137 8.91211 39.0137 8.71289C39.0137 8.50977 39.084 8.33789 39.2246 8.19727C39.3691 8.05664 39.543 7.98633 39.7461 7.98633C39.9531 7.98633 40.127 8.05664 40.2676 8.19727C40.4121 8.33789 40.4844 8.50977 40.4844 8.71289C40.4844 8.91211 40.4121 9.08203 40.2676 9.22266ZM41.5625 12.082C41.5625 11.5312 41.7852 11.084 42.2305 10.7402C42.6758 10.3965 43.2578 10.2246 43.9766 10.2246C44.6602 10.2246 45.2207 10.3984 45.6582 10.7461C46.0996 11.0898 46.3301 11.5371 46.3496 12.0879H45.1602C45.1289 11.8066 45.0059 11.5859 44.791 11.4258C44.5762 11.2656 44.293 11.1855 43.9414 11.1855C43.5977 11.1855 43.3203 11.2617 43.1094 11.4141C42.9023 11.5664 42.7988 11.7637 42.7988 12.0059C42.7988 12.3809 43.1133 12.6465 43.7422 12.8027L44.7793 13.043C45.4004 13.1914 45.8398 13.3945 46.0977 13.6523C46.3594 13.9062 46.4902 14.2617 46.4902 14.7188C46.4902 15.2812 46.252 15.7383 45.7754 16.0898C45.3027 16.4414 44.6875 16.6172 43.9297 16.6172C43.207 16.6172 42.6172 16.4453 42.1602 16.1016C41.707 15.7578 41.4551 15.3008 41.4043 14.7305H42.6582C42.709 15.0273 42.8477 15.2559 43.0742 15.416C43.3008 15.5723 43.6055 15.6504 43.9883 15.6504C44.3672 15.6504 44.666 15.5781 44.8848 15.4336C45.1074 15.2852 45.2188 15.0859 45.2188 14.8359C45.2188 14.6367 45.1523 14.4785 45.0195 14.3613C44.8867 14.2441 44.6602 14.1445 44.3398 14.0625L43.2383 13.793C42.1211 13.5234 41.5625 12.9531 41.5625 12.082ZM52.25 15.7617C51.7188 16.332 51.0098 16.6172 50.123 16.6172C49.2363 16.6172 48.5273 16.332 47.9961 15.7617C47.4648 15.1875 47.1992 14.4062 47.1992 13.418C47.1992 12.4336 47.4648 11.6562 47.9961 11.0859C48.5273 10.5117 49.2363 10.2246 50.123 10.2246C51.0098 10.2246 51.7188 10.5117 52.25 11.0859C52.7812 11.6562 53.0469 12.4336 53.0469 13.418C53.0469 14.4062 52.7812 15.1875 52.25 15.7617ZM50.123 15.5742C50.627 15.5742 51.0254 15.3848 51.3184 15.0059C51.6113 14.627 51.7578 14.0977 51.7578 13.418C51.7578 12.7422 51.6094 12.2148 51.3125 11.8359C51.0195 11.457 50.623 11.2676 50.123 11.2676C49.623 11.2676 49.2246 11.457 48.9277 11.8359C48.6348 12.2148 48.4883 12.7422 48.4883 13.418C48.4883 14.0977 48.6348 14.627 48.9277 15.0059C49.2246 15.3848 49.623 15.5742 50.123 15.5742ZM54.0254 16.5V10.3359H55.2324V11.3672H55.2617C55.4336 11.0078 55.6836 10.7285 56.0117 10.5293C56.3398 10.3301 56.7363 10.2305 57.2012 10.2305C57.877 10.2305 58.4023 10.4336 58.7773 10.8398C59.1523 11.2422 59.3398 11.7988 59.3398 12.5098V16.5H58.0684V12.7559C58.0684 12.2871 57.957 11.9316 57.7344 11.6895C57.5156 11.4434 57.1895 11.3203 56.7559 11.3203C56.3105 11.3203 55.9551 11.4648 55.6895 11.7539C55.4238 12.043 55.291 12.4277 55.291 12.9082V16.5H54.0254Z" fill="white"/>
</svg>
