<svg width="61" height="25" viewBox="0 0 61 25" fill="none" xmlns="http://www.w3.org/2000/svg">
<path d="M0 3C0 1.34315 1.34315 0 3 0H58C59.6569 0 61 1.34315 61 3V22C61 23.6569 59.6569 25 58 25H3C1.34315 25 0 23.6569 0 22V3Z" fill="#62B957"/>
<path fill-rule="evenodd" clip-rule="evenodd" d="M7.78951 18.0851C7.73606 18.0348 7.6832 17.9835 7.63095 17.9313C4.87269 15.1731 4.87269 10.701 7.63095 7.94279C10.3892 5.18452 19.1781 5 19.1781 5C19.1781 5 20.3777 15.1731 17.6195 17.9313C15.1698 20.381 11.3683 20.655 8.61621 18.7535L10.8338 16.0321L14.3788 15.2668L11.485 14.9775L13.324 13.105L15.4174 12.6464L13.7621 12.1562L15.4174 9.1701L13.0629 11.8111L12.1536 10.528L12.4737 12.6464L10.8338 14.4952L10.0736 12.1562V15.2668L7.78951 18.0851Z" fill="white"/>
<path d="M33.4629 12.9844C33.4629 14.1289 33.1406 15.0254 32.4961 15.6738C31.8555 16.3184 30.9629 16.6406 29.8184 16.6406C28.6074 16.6406 27.6465 16.2461 26.9355 15.457C26.2285 14.6641 25.875 13.5898 25.875 12.2344C25.875 10.9023 26.2266 9.84766 26.9297 9.07031C27.6367 8.29297 28.5938 7.9043 29.8008 7.9043C30.7422 7.9043 31.5391 8.16016 32.1914 8.67188C32.8477 9.18359 33.25 9.86133 33.3984 10.7051H32.0508C31.8945 10.1816 31.6191 9.77539 31.2246 9.48633C30.8301 9.19727 30.3574 9.05273 29.8066 9.05273C28.998 9.05273 28.3633 9.33398 27.9023 9.89648C27.4453 10.4551 27.2168 11.2305 27.2168 12.2227C27.2168 13.2344 27.4512 14.0332 27.9199 14.6191C28.3887 15.2012 29.0254 15.4922 29.8301 15.4922C30.5137 15.4922 31.0723 15.293 31.5059 14.8945C31.9395 14.4922 32.1602 13.9707 32.168 13.3301V13.1836H29.9824V12.123H33.4629V12.9844ZM34.5938 16.5V10.3359H35.8008V11.3848H35.8301C35.9316 11.0254 36.1133 10.7441 36.375 10.541C36.6367 10.3379 36.9492 10.2363 37.3125 10.2363C37.4336 10.2363 37.5781 10.252 37.7461 10.2832V11.4609C37.6328 11.4141 37.4434 11.3906 37.1777 11.3906C36.7715 11.3906 36.4492 11.5176 36.2109 11.7715C35.9766 12.0254 35.8594 12.3711 35.8594 12.8086V16.5H34.5938ZM40.5586 15.6035C41.0039 15.6035 41.377 15.4688 41.6777 15.1992C41.9824 14.9258 42.1348 14.5898 42.1348 14.1914V13.7051L40.6172 13.7988C40.2383 13.8262 39.9453 13.9199 39.7383 14.0801C39.5352 14.2363 39.4336 14.4473 39.4336 14.7129C39.4336 14.9824 39.5352 15.1992 39.7383 15.3633C39.9453 15.5234 40.2188 15.6035 40.5586 15.6035ZM40.207 16.6055C39.6016 16.6055 39.1074 16.4336 38.7246 16.0898C38.3457 15.7461 38.1562 15.2988 38.1562 14.748C38.1562 14.209 38.3555 13.7812 38.7539 13.4648C39.1523 13.1445 39.7168 12.9648 40.4473 12.9258L42.1348 12.8262V12.3516C42.1348 12.0078 42.0254 11.7402 41.8066 11.5488C41.5879 11.3535 41.2852 11.2559 40.8984 11.2559C40.5391 11.2559 40.2461 11.3359 40.0195 11.4961C39.7969 11.6562 39.6562 11.877 39.5977 12.1582H38.4023C38.4375 11.5879 38.6836 11.123 39.1406 10.7637C39.5977 10.4043 40.1992 10.2246 40.9453 10.2246C41.6914 10.2246 42.2852 10.4082 42.7266 10.7754C43.1719 11.1426 43.3945 11.6348 43.3945 12.252V16.5H42.1816V15.4863H42.1523C41.9766 15.8262 41.709 16.0977 41.3496 16.3008C40.9941 16.5039 40.6133 16.6055 40.207 16.6055ZM44.5137 12.082C44.5137 11.5312 44.7363 11.084 45.1816 10.7402C45.627 10.3965 46.209 10.2246 46.9277 10.2246C47.6113 10.2246 48.1719 10.3984 48.6094 10.7461C49.0508 11.0898 49.2812 11.5371 49.3008 12.0879H48.1113C48.0801 11.8066 47.957 11.5859 47.7422 11.4258C47.5273 11.2656 47.2441 11.1855 46.8926 11.1855C46.5488 11.1855 46.2715 11.2617 46.0605 11.4141C45.8535 11.5664 45.75 11.7637 45.75 12.0059C45.75 12.3809 46.0645 12.6465 46.6934 12.8027L47.7305 13.043C48.3516 13.1914 48.791 13.3945 49.0488 13.6523C49.3105 13.9062 49.4414 14.2617 49.4414 14.7188C49.4414 15.2812 49.2031 15.7383 48.7266 16.0898C48.2539 16.4414 47.6387 16.6172 46.8809 16.6172C46.1582 16.6172 45.5684 16.4453 45.1113 16.1016C44.6582 15.7578 44.4062 15.3008 44.3555 14.7305H45.6094C45.6602 15.0273 45.7988 15.2559 46.0254 15.416C46.252 15.5723 46.5566 15.6504 46.9395 15.6504C47.3184 15.6504 47.6172 15.5781 47.8359 15.4336C48.0586 15.2852 48.1699 15.0859 48.1699 14.8359C48.1699 14.6367 48.1035 14.4785 47.9707 14.3613C47.8379 14.2441 47.6113 14.1445 47.291 14.0625L46.1895 13.793C45.0723 13.5234 44.5137 12.9531 44.5137 12.082ZM50.3145 12.082C50.3145 11.5312 50.5371 11.084 50.9824 10.7402C51.4277 10.3965 52.0098 10.2246 52.7285 10.2246C53.4121 10.2246 53.9727 10.3984 54.4102 10.7461C54.8516 11.0898 55.082 11.5371 55.1016 12.0879H53.9121C53.8809 11.8066 53.7578 11.5859 53.543 11.4258C53.3281 11.2656 53.0449 11.1855 52.6934 11.1855C52.3496 11.1855 52.0723 11.2617 51.8613 11.4141C51.6543 11.5664 51.5508 11.7637 51.5508 12.0059C51.5508 12.3809 51.8652 12.6465 52.4941 12.8027L53.5312 13.043C54.1523 13.1914 54.5918 13.3945 54.8496 13.6523C55.1113 13.9062 55.2422 14.2617 55.2422 14.7188C55.2422 15.2812 55.0039 15.7383 54.5273 16.0898C54.0547 16.4414 53.4395 16.6172 52.6816 16.6172C51.959 16.6172 51.3691 16.4453 50.9121 16.1016C50.459 15.7578 50.207 15.3008 50.1562 14.7305H51.4102C51.4609 15.0273 51.5996 15.2559 51.8262 15.416C52.0527 15.5723 52.3574 15.6504 52.7402 15.6504C53.1191 15.6504 53.418 15.5781 53.6367 15.4336C53.8594 15.2852 53.9707 15.0859 53.9707 14.8359C53.9707 14.6367 53.9043 14.4785 53.7715 14.3613C53.6387 14.2441 53.4121 14.1445 53.0918 14.0625L51.9902 13.793C50.873 13.5234 50.3145 12.9531 50.3145 12.082Z" fill="white"/>
</svg>
