<svg width="51" height="25" viewBox="0 0 51 25" fill="none" xmlns="http://www.w3.org/2000/svg">
<path d="M0 3C0 1.34315 1.34315 0 3 0H48C49.6569 0 51 1.34315 51 3V22C51 23.6569 49.6569 25 48 25H3C1.34315 25 0 23.6569 0 22V3Z" fill="#8CB330"/>
<path fill-rule="evenodd" clip-rule="evenodd" d="M15.0223 5.01469C15.0332 4.99911 15.0547 4.99532 15.0703 5.00623L16.1353 5.75201C16.1509 5.76292 16.1547 5.78439 16.1438 5.79996L14.6614 7.91706C15.3821 8.1473 15.8731 8.39565 15.8731 8.39565C15.8731 8.39565 14.6729 10.46 12.6374 10.46C10.6018 10.46 9.15539 8.53598 9.15539 8.53598C9.15539 8.53598 9.66827 8.20867 10.4285 7.92795L8.80253 5.99018C8.79032 5.97561 8.79222 5.95389 8.80678 5.94167L9.8028 5.1059C9.81739 5.09368 9.8391 5.09558 9.85132 5.11014L11.9101 7.5637C12.0864 7.54376 12.266 7.53262 12.4472 7.53262C12.7077 7.53262 12.9679 7.55242 13.2218 7.58603L15.0223 5.01469ZM15.425 10.5578C15.9682 10.1698 16.7902 9.15723 16.7902 9.15723C16.7902 9.15723 18.8898 10.821 18.8898 14.3489C18.8898 17.8767 15.2599 20 15.2599 20C15.2599 20 13.5257 18.2486 13.0999 16.0284C12.6742 13.8082 13.7297 11.343 13.7297 11.343C13.7297 11.343 14.8818 10.9457 15.425 10.5578ZM9.57484 10.5578C9.03164 10.1698 8.20967 9.15723 8.20967 9.15723C8.20967 9.15723 6.11011 10.821 6.11011 14.3489C6.11011 17.8767 9.73993 20 9.73993 20C9.73993 20 11.4742 18.2486 11.8999 16.0284C12.3257 13.8082 11.2702 11.343 11.2702 11.343C11.2702 11.343 10.1181 10.9457 9.57484 10.5578Z" fill="white"/>
<path d="M29.3066 16.5H25.9141V8.04492H29.2891C30.0391 8.04492 30.6406 8.23828 31.0938 8.625C31.5469 9.00781 31.7734 9.51758 31.7734 10.1543C31.7734 10.6035 31.627 11.0059 31.334 11.3613C31.0449 11.7129 30.6895 11.9238 30.2676 11.9941V12.041C30.8457 12.1074 31.3105 12.3301 31.6621 12.709C32.0137 13.084 32.1895 13.5508 32.1895 14.1094C32.1895 14.8555 31.9336 15.4414 31.4219 15.8672C30.9102 16.2891 30.2051 16.5 29.3066 16.5ZM27.2266 9.11719V11.6426H28.6973C29.2637 11.6426 29.6992 11.5293 30.0039 11.3027C30.3086 11.0762 30.4609 10.7539 30.4609 10.3359C30.4609 9.94531 30.332 9.64453 30.0742 9.43359C29.8164 9.22266 29.4492 9.11719 28.9727 9.11719H27.2266ZM27.2266 15.4277H29.0371C29.627 15.4277 30.0762 15.3086 30.3848 15.0703C30.6934 14.832 30.8477 14.4844 30.8477 14.0273C30.8477 13.1055 30.2188 12.6445 28.9609 12.6445H27.2266V15.4277ZM38.4531 10.3359V16.5H37.2402V15.457H37.2109C36.8555 16.2266 36.2188 16.6113 35.3008 16.6113C34.6289 16.6113 34.0996 16.4082 33.7129 16.002C33.3301 15.5918 33.1387 15.0332 33.1387 14.3262V10.3359H34.4043V14.0801C34.4043 14.5527 34.5156 14.9121 34.7383 15.1582C34.9609 15.4004 35.2891 15.5215 35.7227 15.5215C36.1758 15.5215 36.5332 15.377 36.7949 15.0879C37.0566 14.7988 37.1875 14.4121 37.1875 13.9277V10.3359H38.4531ZM42.332 15.4746C42.8281 15.4746 43.2246 15.2871 43.5215 14.9121C43.8223 14.5371 43.9727 14.0332 43.9727 13.4004C43.9727 12.7676 43.8223 12.2598 43.5215 11.877C43.2246 11.4941 42.8281 11.3027 42.332 11.3027C41.8438 11.3027 41.4531 11.4922 41.1602 11.8711C40.8711 12.25 40.7266 12.7598 40.7266 13.4004C40.7266 14.041 40.8711 14.5469 41.1602 14.918C41.4531 15.2891 41.8438 15.4746 42.332 15.4746ZM42.3438 18.8203C41.625 18.8203 41.0156 18.6484 40.5156 18.3047C40.0195 17.9609 39.7324 17.5195 39.6543 16.9805H40.9258C41.0156 17.2383 41.1914 17.4453 41.4531 17.6016C41.7188 17.7578 42.0312 17.8359 42.3906 17.8359C42.8789 17.8359 43.2637 17.707 43.5449 17.4492C43.8262 17.1953 43.9668 16.8555 43.9668 16.4297V15.416H43.9434C43.7676 15.7559 43.5059 16.0254 43.1582 16.2246C42.8145 16.4238 42.4258 16.5234 41.9922 16.5234C41.2148 16.5234 40.5938 16.2422 40.1289 15.6797C39.6641 15.1133 39.4316 14.3516 39.4316 13.3945C39.4316 12.4258 39.6641 11.6582 40.1289 11.0918C40.5977 10.5215 41.2285 10.2363 42.0215 10.2363C42.4551 10.2363 42.8438 10.3398 43.1875 10.5469C43.5312 10.75 43.7969 11.0312 43.9844 11.3906H44.0078V10.3359H45.2383V16.3887C45.2383 17.123 44.9746 17.7109 44.4473 18.1523C43.9238 18.5977 43.2227 18.8203 42.3438 18.8203Z" fill="white"/>
</svg>
