<svg width="62" height="25" viewBox="0 0 62 25" fill="none" xmlns="http://www.w3.org/2000/svg">
<path d="M0 3C0 1.34315 1.34315 0 3 0H59C60.6569 0 62 1.34315 62 3V22C62 23.6569 60.6569 25 59 25H3C1.34315 25 0 23.6569 0 22V3Z" fill="#556AAE"/>
<path fill-rule="evenodd" clip-rule="evenodd" d="M15.8091 19.9481C14.4561 20.0173 12.9071 20.0173 12.3807 19.9481C8.27451 19.4079 5 16.4057 5 12.3477C5 8.28966 8.35786 5 12.5 5C16.6421 5 20 8.28966 20 12.3477C20 14.235 19.2736 15.9561 18.0799 17.2574C17.7557 17.6108 18.2005 17.8586 18.6524 18.1105C19.0956 18.3575 19.5457 18.6083 19.2841 18.9662C18.9959 19.3605 17.4334 19.8649 15.8091 19.9481ZM11.4453 11.4292C11.4453 12.0632 10.9206 12.5773 10.2734 12.5773C9.62624 12.5773 9.10156 12.0632 9.10156 11.4292C9.10156 11.004 9.33755 10.6327 9.6882 10.4343C9.70839 10.9872 10.163 11.4292 10.7208 11.4292H11.4453V11.4292ZM15.0774 10.4343C15.0572 10.9872 14.6027 11.4292 14.0449 11.4292H13.3203V11.4292C13.3203 12.0632 13.845 12.5773 14.4922 12.5773C15.1394 12.5773 15.6641 12.0632 15.6641 11.4292C15.6641 11.004 15.4281 10.6327 15.0774 10.4343Z" fill="white"/>
<path d="M33.3418 12.9844C33.3418 14.1289 33.0195 15.0254 32.375 15.6738C31.7344 16.3184 30.8418 16.6406 29.6973 16.6406C28.4863 16.6406 27.5254 16.2461 26.8145 15.457C26.1074 14.6641 25.7539 13.5898 25.7539 12.2344C25.7539 10.9023 26.1055 9.84766 26.8086 9.07031C27.5156 8.29297 28.4727 7.9043 29.6797 7.9043C30.6211 7.9043 31.418 8.16016 32.0703 8.67188C32.7266 9.18359 33.1289 9.86133 33.2773 10.7051H31.9297C31.7734 10.1816 31.498 9.77539 31.1035 9.48633C30.709 9.19727 30.2363 9.05273 29.6855 9.05273C28.877 9.05273 28.2422 9.33398 27.7812 9.89648C27.3242 10.4551 27.0957 11.2305 27.0957 12.2227C27.0957 13.2344 27.3301 14.0332 27.7988 14.6191C28.2676 15.2012 28.9043 15.4922 29.709 15.4922C30.3926 15.4922 30.9512 15.293 31.3848 14.8945C31.8184 14.4922 32.0391 13.9707 32.0469 13.3301V13.1836H29.8613V12.123H33.3418V12.9844ZM34.5195 16.5V8.04492H35.7734V11.3672H35.8027C35.9746 11.0039 36.2266 10.7246 36.5586 10.5293C36.8906 10.3301 37.2891 10.2305 37.7539 10.2305C38.4258 10.2305 38.9531 10.4375 39.3359 10.8516C39.7227 11.2656 39.916 11.8242 39.916 12.5273V16.5H38.6445V12.7734C38.6445 12.3125 38.5293 11.9551 38.2988 11.7012C38.0723 11.4473 37.7383 11.3203 37.2969 11.3203C36.832 11.3203 36.4629 11.4688 36.1895 11.7656C35.9199 12.0586 35.7852 12.4492 35.7852 12.9375V16.5H34.5195ZM45.916 15.7617C45.3848 16.332 44.6758 16.6172 43.7891 16.6172C42.9023 16.6172 42.1934 16.332 41.6621 15.7617C41.1309 15.1875 40.8652 14.4062 40.8652 13.418C40.8652 12.4336 41.1309 11.6562 41.6621 11.0859C42.1934 10.5117 42.9023 10.2246 43.7891 10.2246C44.6758 10.2246 45.3848 10.5117 45.916 11.0859C46.4473 11.6562 46.7129 12.4336 46.7129 13.418C46.7129 14.4062 46.4473 15.1875 45.916 15.7617ZM43.7891 15.5742C44.293 15.5742 44.6914 15.3848 44.9844 15.0059C45.2773 14.627 45.4238 14.0977 45.4238 13.418C45.4238 12.7422 45.2754 12.2148 44.9785 11.8359C44.6855 11.457 44.2891 11.2676 43.7891 11.2676C43.2891 11.2676 42.8906 11.457 42.5938 11.8359C42.3008 12.2148 42.1543 12.7422 42.1543 13.418C42.1543 14.0977 42.3008 14.627 42.5938 15.0059C42.8906 15.3848 43.2891 15.5742 43.7891 15.5742ZM47.5801 12.082C47.5801 11.5312 47.8027 11.084 48.248 10.7402C48.6934 10.3965 49.2754 10.2246 49.9941 10.2246C50.6777 10.2246 51.2383 10.3984 51.6758 10.7461C52.1172 11.0898 52.3477 11.5371 52.3672 12.0879H51.1777C51.1465 11.8066 51.0234 11.5859 50.8086 11.4258C50.5938 11.2656 50.3105 11.1855 49.959 11.1855C49.6152 11.1855 49.3379 11.2617 49.127 11.4141C48.9199 11.5664 48.8164 11.7637 48.8164 12.0059C48.8164 12.3809 49.1309 12.6465 49.7598 12.8027L50.7969 13.043C51.418 13.1914 51.8574 13.3945 52.1152 13.6523C52.377 13.9062 52.5078 14.2617 52.5078 14.7188C52.5078 15.2812 52.2695 15.7383 51.793 16.0898C51.3203 16.4414 50.7051 16.6172 49.9473 16.6172C49.2246 16.6172 48.6348 16.4453 48.1777 16.1016C47.7246 15.7578 47.4727 15.3008 47.4219 14.7305H48.6758C48.7266 15.0273 48.8652 15.2559 49.0918 15.416C49.3184 15.5723 49.623 15.6504 50.0059 15.6504C50.3848 15.6504 50.6836 15.5781 50.9023 15.4336C51.125 15.2852 51.2363 15.0859 51.2363 14.8359C51.2363 14.6367 51.1699 14.4785 51.0371 14.3613C50.9043 14.2441 50.6777 14.1445 50.3574 14.0625L49.2559 13.793C48.1387 13.5234 47.5801 12.9531 47.5801 12.082ZM53.8613 8.87695H55.1328V10.3359H56.3047V11.3379H55.1328V14.7363C55.1328 15.002 55.1934 15.1973 55.3145 15.3223C55.4355 15.4473 55.625 15.5098 55.8828 15.5098C56.0703 15.5098 56.209 15.5 56.2988 15.4805V16.4824C56.1426 16.5215 55.9082 16.541 55.5957 16.541C54.9746 16.541 54.5293 16.4141 54.2598 16.1602C53.9941 15.9023 53.8613 15.4746 53.8613 14.877V11.3379H52.9648V10.3359H53.8613V8.87695Z" fill="white"/>
</svg>
