<svg width="50" height="25" viewBox="0 0 50 25" fill="none" xmlns="http://www.w3.org/2000/svg">
<path d="M0 3C0 1.34315 1.34315 0 3 0H47C48.6569 0 50 1.34315 50 3V22C50 23.6569 48.6569 25 47 25H3C1.34315 25 0 23.6569 0 22V3Z" fill="#FD7D24"/>
<path fill-rule="evenodd" clip-rule="evenodd" d="M15.325 16.5838C15.5103 15.9061 15.1505 14.513 15.1505 14.513C15.1505 14.513 14.8896 15.6479 14.4819 16.0674C14.1341 16.4252 13.708 16.6734 13.0969 16.7386C13.5965 16.4959 13.9401 15.9898 13.9401 15.4049C13.9401 14.5839 13.263 13.9182 12.4278 13.9182C11.5925 13.9182 10.9154 14.5839 10.9154 15.4049C10.9154 15.6292 10.9659 15.8418 11.0564 16.0325C10.5339 15.6163 10.4518 14.949 10.4518 14.949C10.4518 14.949 9.86843 17.371 11.4758 18.5103C13.0832 19.6496 16.232 18.6703 16.232 18.6703C16.232 18.6703 11.7259 21.8409 8.3868 18.3901C5.51046 15.4175 7.63607 11.504 7.63607 11.504C7.63607 11.504 7.54427 11.867 7.54427 12.2885C7.54427 12.7099 7.77277 13.0306 7.77277 13.0306C7.77277 13.0306 8.45436 11.5939 8.98481 11.0096C9.48684 10.4567 10.1162 10.0082 10.6597 9.62082C11.0782 9.32264 11.4458 9.06067 11.6653 8.81513C12.8746 7.46295 12.1331 5 12.1331 5C12.1331 5 13.4963 6.20176 13.8769 7.75384C14.022 8.34547 13.9286 9.01862 13.8452 9.62059C13.7097 10.5978 13.6002 11.3875 14.5789 11.3362C16.1604 11.2534 14.7861 8.81513 14.7861 8.81513C14.7861 8.81513 18.3736 10.7007 18.1056 13.9984C17.8375 17.2961 14.1843 18.0458 14.1843 18.0458C14.1843 18.0458 15.1396 17.2615 15.325 16.5838Z" fill="white"/>
<path d="M27.5762 16.5H26.2637V8.04492H31.543V9.17578H27.5762V11.8535H31.209V12.9609H27.5762V16.5ZM32.5742 16.5V10.3359H33.8398V16.5H32.5742ZM33.7285 9.22266C33.584 9.36328 33.4102 9.43359 33.207 9.43359C33.0039 9.43359 32.8301 9.36328 32.6855 9.22266C32.5449 9.08203 32.4746 8.91211 32.4746 8.71289C32.4746 8.50977 32.5449 8.33789 32.6855 8.19727C32.8301 8.05664 33.0039 7.98633 33.207 7.98633C33.4141 7.98633 33.5879 8.05664 33.7285 8.19727C33.873 8.33789 33.9453 8.50977 33.9453 8.71289C33.9453 8.91211 33.873 9.08203 33.7285 9.22266ZM35.1348 16.5V10.3359H36.3418V11.3848H36.3711C36.4727 11.0254 36.6543 10.7441 36.916 10.541C37.1777 10.3379 37.4902 10.2363 37.8535 10.2363C37.9746 10.2363 38.1191 10.252 38.2871 10.2832V11.4609C38.1738 11.4141 37.9844 11.3906 37.7188 11.3906C37.3125 11.3906 36.9902 11.5176 36.752 11.7715C36.5176 12.0254 36.4004 12.3711 36.4004 12.8086V16.5H35.1348ZM42.4531 11.6895C42.1758 11.3926 41.8184 11.2441 41.3809 11.2441C40.9434 11.2441 40.5801 11.3945 40.291 11.6953C40.002 11.9922 39.8418 12.377 39.8105 12.8496H42.8926C42.877 12.373 42.7305 11.9863 42.4531 11.6895ZM42.8867 14.6895H44.0879C43.998 15.2559 43.709 15.7188 43.2207 16.0781C42.7324 16.4375 42.1367 16.6172 41.4336 16.6172C40.5312 16.6172 39.8203 16.334 39.3008 15.7676C38.7852 15.1973 38.5273 14.4238 38.5273 13.4473C38.5273 12.4785 38.7852 11.6992 39.3008 11.1094C39.8203 10.5195 40.5137 10.2246 41.3809 10.2246C42.2324 10.2246 42.9082 10.5039 43.4082 11.0625C43.9082 11.6172 44.1582 12.3633 44.1582 13.3008V13.7344H39.8047V13.8105C39.8047 14.3496 39.9551 14.7812 40.2559 15.1055C40.5566 15.4297 40.959 15.5918 41.4629 15.5918C41.8184 15.5918 42.123 15.5098 42.377 15.3457C42.6309 15.1816 42.8008 14.9629 42.8867 14.6895Z" fill="white"/>
</svg>
