<svg width="69" height="25" viewBox="0 0 69 25" fill="none" xmlns="http://www.w3.org/2000/svg">
<path d="M0 3C0 1.34315 1.34315 0 3 0H66C67.6569 0 69 1.34315 69 3V22C69 23.6569 67.6569 25 66 25H3C1.34315 25 0 23.6569 0 22V3Z" fill="#0F6AC0"/>
<path fill-rule="evenodd" clip-rule="evenodd" d="M13.2276 12.4672C13.3293 12.4052 13.4155 12.2753 13.4851 12.1309C14.4004 12.5051 15.0437 13.3891 15.0437 14.4201C15.0437 15.7897 13.9085 16.9001 12.5081 16.9001C11.9332 16.9001 11.403 16.7129 10.9777 16.3976C10.8382 16.3316 10.7234 16.2681 10.6295 16.2162C10.4838 16.1356 10.3883 16.0828 10.3284 16.0911C10.1536 16.1152 10.2043 16.2761 10.2505 16.4222C10.2818 16.5215 10.311 16.614 10.2658 16.6522C10.2185 16.6921 10.0654 16.5461 9.88638 16.3754C9.64274 16.1432 9.3513 15.8653 9.21387 15.9487C9.10521 16.0147 9.2107 16.1938 9.33984 16.4129L9.34942 16.4292C9.40397 16.5218 9.4672 16.6162 9.52488 16.7022C9.64216 16.8772 9.73661 17.0181 9.68936 17.042C9.63223 17.0708 9.2342 16.8022 8.89878 16.4292C8.76932 16.2852 8.64393 16.1292 8.52738 15.9842V15.9842C8.27229 15.6668 8.05978 15.4024 7.94048 15.4337C7.79697 15.4714 7.90553 15.7674 8.06505 16.0522C8.13964 16.1855 8.22738 16.3211 8.30335 16.4386V16.4386C8.4215 16.6212 8.51118 16.7598 8.47866 16.7769C8.43478 16.7998 8.04861 16.4233 7.78633 15.9487C7.63054 15.6669 7.49973 15.3554 7.39383 15.1032C7.27898 14.8297 7.19343 14.626 7.1371 14.6055C6.94138 14.5343 6.94138 14.9334 7.01988 15.5093C7.03012 15.5845 7.04537 15.6633 7.06414 15.7435C7.8254 18.2066 10.1639 20 12.9307 20C16.315 20 19.0584 17.3168 19.0584 14.0068C19.0584 10.8564 16.5732 8.27384 13.4156 8.03205C13.4196 7.88364 13.4971 7.58935 13.4971 7.58935C13.4971 7.58935 14.0545 6.24064 14.084 5.95244C14.0859 5.93331 14.0882 5.91252 14.0907 5.89039C14.1254 5.57899 14.19 5 13.6919 5C13.4259 5 13.3022 5.19789 13.1607 5.42422V5.42422C13.1064 5.5111 13.0495 5.60218 12.9809 5.68786C12.4867 6.30499 11.6557 7.07565 11.1845 7.48622C10.1886 8.35402 9.21149 9.06723 8.64161 9.48318L8.64158 9.48321C8.38239 9.67238 8.20746 9.80009 8.15332 9.85285C7.74533 10.2506 6.28247 12.8892 6.28247 12.8892C6.28247 12.8892 5.8094 13.7358 5.97755 13.9075C6.1457 14.0792 6.55119 14.0398 6.55119 14.0398C6.55119 14.0398 11.9987 12.7901 12.4864 12.6916C12.6177 12.665 12.7104 12.6497 12.7816 12.638C12.9748 12.6061 13.0095 12.6003 13.2276 12.4672ZM9.37603 10.8612C9.08361 11.1392 8.59866 11.8026 8.59866 11.8026C8.59866 11.8026 9.49995 11.8581 9.99633 11.3863C10.4927 10.9145 10.379 10.1103 10.379 10.1103C10.379 10.1103 9.66841 10.5833 9.37603 10.8612Z" fill="white"/>
<path d="M26.207 8.04492H29.1895C30.4473 8.04492 31.4277 8.41406 32.1309 9.15234C32.8379 9.89062 33.1914 10.9258 33.1914 12.2578C33.1914 13.5938 32.8398 14.6348 32.1367 15.3809C31.4336 16.127 30.4512 16.5 29.1895 16.5H26.207V8.04492ZM27.5195 9.17578V15.3633H29.0664C29.9648 15.3633 30.6523 15.0977 31.1289 14.5664C31.6094 14.0352 31.8496 13.2695 31.8496 12.2695C31.8496 11.2734 31.6094 10.5098 31.1289 9.97852C30.6484 9.44336 29.9609 9.17578 29.0664 9.17578H27.5195ZM34.293 16.5V10.3359H35.5V11.3848H35.5293C35.6309 11.0254 35.8125 10.7441 36.0742 10.541C36.3359 10.3379 36.6484 10.2363 37.0117 10.2363C37.1328 10.2363 37.2773 10.252 37.4453 10.2832V11.4609C37.332 11.4141 37.1426 11.3906 36.877 11.3906C36.4707 11.3906 36.1484 11.5176 35.9102 11.7715C35.6758 12.0254 35.5586 12.3711 35.5586 12.8086V16.5H34.293ZM40.2578 15.6035C40.7031 15.6035 41.0762 15.4688 41.377 15.1992C41.6816 14.9258 41.834 14.5898 41.834 14.1914V13.7051L40.3164 13.7988C39.9375 13.8262 39.6445 13.9199 39.4375 14.0801C39.2344 14.2363 39.1328 14.4473 39.1328 14.7129C39.1328 14.9824 39.2344 15.1992 39.4375 15.3633C39.6445 15.5234 39.918 15.6035 40.2578 15.6035ZM39.9062 16.6055C39.3008 16.6055 38.8066 16.4336 38.4238 16.0898C38.0449 15.7461 37.8555 15.2988 37.8555 14.748C37.8555 14.209 38.0547 13.7812 38.4531 13.4648C38.8516 13.1445 39.416 12.9648 40.1465 12.9258L41.834 12.8262V12.3516C41.834 12.0078 41.7246 11.7402 41.5059 11.5488C41.2871 11.3535 40.9844 11.2559 40.5977 11.2559C40.2383 11.2559 39.9453 11.3359 39.7188 11.4961C39.4961 11.6562 39.3555 11.877 39.2969 12.1582H38.1016C38.1367 11.5879 38.3828 11.123 38.8398 10.7637C39.2969 10.4043 39.8984 10.2246 40.6445 10.2246C41.3906 10.2246 41.9844 10.4082 42.4258 10.7754C42.8711 11.1426 43.0938 11.6348 43.0938 12.252V16.5H41.8809V15.4863H41.8516C41.6758 15.8262 41.4082 16.0977 41.0488 16.3008C40.6934 16.5039 40.3125 16.6055 39.9062 16.6055ZM46.9492 15.4746C47.4453 15.4746 47.8418 15.2871 48.1387 14.9121C48.4395 14.5371 48.5898 14.0332 48.5898 13.4004C48.5898 12.7676 48.4395 12.2598 48.1387 11.877C47.8418 11.4941 47.4453 11.3027 46.9492 11.3027C46.4609 11.3027 46.0703 11.4922 45.7773 11.8711C45.4883 12.25 45.3438 12.7598 45.3438 13.4004C45.3438 14.041 45.4883 14.5469 45.7773 14.918C46.0703 15.2891 46.4609 15.4746 46.9492 15.4746ZM46.9609 18.8203C46.2422 18.8203 45.6328 18.6484 45.1328 18.3047C44.6367 17.9609 44.3496 17.5195 44.2715 16.9805H45.543C45.6328 17.2383 45.8086 17.4453 46.0703 17.6016C46.3359 17.7578 46.6484 17.8359 47.0078 17.8359C47.4961 17.8359 47.8809 17.707 48.1621 17.4492C48.4434 17.1953 48.584 16.8555 48.584 16.4297V15.416H48.5605C48.3848 15.7559 48.123 16.0254 47.7754 16.2246C47.4316 16.4238 47.043 16.5234 46.6094 16.5234C45.832 16.5234 45.2109 16.2422 44.7461 15.6797C44.2812 15.1133 44.0488 14.3516 44.0488 13.3945C44.0488 12.4258 44.2812 11.6582 44.7461 11.0918C45.2148 10.5215 45.8457 10.2363 46.6387 10.2363C47.0723 10.2363 47.4609 10.3398 47.8047 10.5469C48.1484 10.75 48.4141 11.0312 48.6016 11.3906H48.625V10.3359H49.8555V16.3887C49.8555 17.123 49.5918 17.7109 49.0645 18.1523C48.541 18.5977 47.8398 18.8203 46.9609 18.8203ZM55.8848 15.7617C55.3535 16.332 54.6445 16.6172 53.7578 16.6172C52.8711 16.6172 52.1621 16.332 51.6309 15.7617C51.0996 15.1875 50.834 14.4062 50.834 13.418C50.834 12.4336 51.0996 11.6562 51.6309 11.0859C52.1621 10.5117 52.8711 10.2246 53.7578 10.2246C54.6445 10.2246 55.3535 10.5117 55.8848 11.0859C56.416 11.6562 56.6816 12.4336 56.6816 13.418C56.6816 14.4062 56.416 15.1875 55.8848 15.7617ZM53.7578 15.5742C54.2617 15.5742 54.6602 15.3848 54.9531 15.0059C55.2461 14.627 55.3926 14.0977 55.3926 13.418C55.3926 12.7422 55.2441 12.2148 54.9473 11.8359C54.6543 11.457 54.2578 11.2676 53.7578 11.2676C53.2578 11.2676 52.8594 11.457 52.5625 11.8359C52.2695 12.2148 52.123 12.7422 52.123 13.418C52.123 14.0977 52.2695 14.627 52.5625 15.0059C52.8594 15.3848 53.2578 15.5742 53.7578 15.5742ZM57.6602 16.5V10.3359H58.8672V11.3672H58.8965C59.0684 11.0078 59.3184 10.7285 59.6465 10.5293C59.9746 10.3301 60.3711 10.2305 60.8359 10.2305C61.5117 10.2305 62.0371 10.4336 62.4121 10.8398C62.7871 11.2422 62.9746 11.7988 62.9746 12.5098V16.5H61.7031V12.7559C61.7031 12.2871 61.5918 11.9316 61.3691 11.6895C61.1504 11.4434 60.8242 11.3203 60.3906 11.3203C59.9453 11.3203 59.5898 11.4648 59.3242 11.7539C59.0586 12.043 58.9258 12.4277 58.9258 12.9082V16.5H57.6602Z" fill="white"/>
</svg>
